<?xml version="1.0" encoding="utf-8"?>
<!-- Generator: Adobe Illustrator 16.0.0, SVG Export Plug-In . SVG Version: 6.00 Build 0)  -->
<!DOCTYPE svg PUBLIC "-//W3C//DTD SVG 1.1//EN" "http://www.w3.org/Graphics/SVG/1.1/DTD/svg11.dtd">
<svg version="1.1" id="Layer_1" xmlns="http://www.w3.org/2000/svg" xmlns:xlink="http://www.w3.org/1999/xlink" x="0px" y="0px"
	 width="1200px" height="1200px" viewBox="0 0 1200 1200" enable-background="new 0 0 1200 1200" xml:space="preserve">
<g>
	<g>
		<g>
			<path fill="#FAB153" d="M671.719,386.414l-0.143,0.035c-0.139-4.76-1.395-9.241-1.709-10.277
				c1.594-7.751-1.338-24.22-1.99-27.083c-0.012-0.07-0.023-0.128-0.035-0.186c-0.164-0.919-0.291-1.583-0.373-1.886v-0.012
				c0.537-3.945,0.42-7.297,0.352-8.542c0.57-0.954,1.059-1.99,1.477-3.084c1.422-3.713,1.697-6.949,1.619-9.288v-0.012
				c-0.082-2.374-0.537-3.829-0.582-3.945l-0.246,0.081c-0.336-1.315-0.988-2.479-1.758-3.503c-1.523-2.025-3.525-3.445-4.572-4.108
				c4.563-6.983,4.131-14.223,3.92-16.038c2.365-2.095,3.889-4.551,4.238-7.449c1.525-12.791-14.27-19.436-18.063-20.844
				c-0.176-3.236-1.189-6.029-2.574-8.403c0-0.011-0.012-0.023-0.021-0.035c-2.504-4.236-6.229-7.1-8.637-8.636
				c-0.908-0.571-1.619-0.955-2.014-1.164c-0.094-0.814-0.256-1.653-0.5-2.502c-1.514-5.365-5.506-10.184-10.695-12.884
				c-10.115-5.295-19.82-4.248-22.848-3.725v-6.89h20.717c2.27,0,4.563-0.837,4.563-2.456c0-1.618-2.293-2.467-4.563-2.467h-20.717
				v-5.691h16.771c2.258,0,4.551-0.838,4.551-2.456c0-1.618-2.293-2.468-4.551-2.468h-16.771v-7.169h11.033
				c2.246,0,3.947-1.059,3.947-2.467s-1.701-2.468-3.947-2.468h-11.033v-4.481h8.02c1.793,0,3.131-0.873,3.131-2.025
				s-1.338-2.025-3.131-2.025h-8.02v-3.491h-1.012h-0.537v0.012c-3.967,0.023-4.561-0.571-4.561-0.571s-0.056,0.052-0.229,0.125
				c-0.176-0.072-0.23-0.125-0.23-0.125s-0.593,0.594-4.563,0.571v-0.012h-0.533h-1.014v3.491h-8.02
				c-1.792,0-3.131,0.873-3.131,2.025s1.339,2.025,3.131,2.025h8.02v4.481h-11.033c-2.247,0-3.945,1.06-3.945,2.468
				s1.698,2.467,3.945,2.467h11.033v7.169h-16.771c-2.258,0-4.551,0.85-4.551,2.468c0,1.618,2.293,2.456,4.551,2.456h16.771v5.691
				H573.17c-2.271,0-4.564,0.85-4.564,2.467c0,1.618,2.293,2.456,4.564,2.456h20.715v6.89c-3.025-0.523-12.732-1.571-22.846,3.725
				c-5.191,2.7-9.184,7.519-10.697,12.884c-0.243,0.85-0.406,1.688-0.5,2.502c-0.396,0.209-1.105,0.593-2.014,1.164
				c-2.408,1.536-6.134,4.399-8.636,8.636c-0.013,0.011-0.024,0.023-0.024,0.035c-1.383,2.375-2.396,5.167-2.57,8.403
				c-3.795,1.408-19.588,8.054-18.063,20.844c0.348,2.898,1.873,5.354,4.235,7.449c-0.209,1.815-0.64,9.055,3.923,16.038
				c-1.047,0.664-3.051,2.083-4.574,4.108c-0.768,1.024-1.42,2.188-1.758,3.503l-0.244-0.081c-0.047,0.116-0.502,1.571-0.582,3.945
				v0.012c-0.082,2.339,0.199,5.575,1.618,9.288c0.419,1.094,0.907,2.13,1.478,3.084c-0.069,1.245-0.186,4.597,0.349,8.542v0.012
				c-0.081,0.303-0.209,0.966-0.372,1.886c-0.012,0.058-0.023,0.116-0.035,0.186c-0.652,2.863-3.584,19.332-1.99,27.083
				c-0.314,1.036-1.572,5.517-1.71,10.277l-0.14-0.035c-0.081,0.373-1.305,6.343,0.057,11.463c0,0.012,0,0.012,0,0.023
				c0.047,0.605,0.209,2.572,0.653,5.11h-0.036c0.024,0.431,0.477,7.402,2.816,13.489v0.012c-0.325,1.979-2.455,16.236,2.26,21.846
				c1.291,1.536,2.967,2.316,4.992,2.316c0.011,0,0.011,0,0.011,0c8.858,0,21.938-25.861,23.501-29.027l0.01-0.011
				c5.691-7.216,9.17-14.746,9.822-16.201c3.598-3.306,6.844-6.925,9.638-10.405c0.024,1.141,1.362,1.99,3.132,1.99h7.541v7.262
				c-1.572,0.174-4.482,0.488-5.668,0.559c-1.258,0.07-2.607-0.128-3.795-0.314c-1.861-0.279-3.469-0.512-4.423,0.314
				c-0.478,0.396-0.722,1-0.722,1.781c0,0.629,0.244,1.21,0.699,1.653c1.408,1.419,4.771,1.489,7.855,1.489h0.512
				c1.199,0,3.936-0.325,5.541-0.523v7.705c-0.779,0.477-3.957,2.165-9.8,2.095c-2.364-0.035-4.843-0.605-7.03-1.117
				c-2.863-0.664-4.924-1.152-6.017-0.28c-0.303,0.233-0.664,0.687-0.664,1.49c0,2.677,5.028,3.794,13.722,4.83
				c0.733,0.081,1.432,0.116,2.096,0.116c3.631,0,6.285-1.141,7.693-1.932v9.183c-0.779,0.465-3.957,2.165-9.8,2.083
				c-2.364-0.023-4.843-0.605-7.03-1.118c-2.863-0.663-4.936-1.152-6.017-0.279c-0.303,0.244-0.664,0.686-0.664,1.489
				c0,2.677,5.028,3.806,13.722,4.831c0.733,0.081,1.432,0.128,2.096,0.128c3.631,0,6.285-1.141,7.693-1.932v9.858
				c-0.77,0.465-3.818,2.095-9.428,2.095h-0.372c-2.364-0.035-4.843-0.605-7.03-1.117c-2.863-0.675-4.936-1.152-6.017-0.279
				c-0.303,0.232-0.664,0.686-0.664,1.489c0,2.677,5.028,3.794,13.722,4.819c0.733,0.093,1.432,0.127,2.096,0.127
				c3.631,0,6.285-1.14,7.693-1.932v9.87c-0.779,0.478-3.945,2.176-9.8,2.083c-2.632-0.035-5.481-1.012-7.775-1.816
				c-2.571-0.884-4.271-1.478-5.282-0.756c-0.292,0.209-0.653,0.641-0.653,1.432c0,3.62,10.161,5.645,13.722,6.063
				c0.733,0.082,1.432,0.128,2.096,0.128c3.631,0,6.285-1.141,7.693-1.932v9.857c-0.793,0.478-3.98,2.153-9.8,2.096
				c-2.503-0.035-5.017-0.757-7.042-1.338c-2.42-0.699-4.016-1.153-5.005-0.408c-0.302,0.221-0.664,0.675-0.664,1.513
				c0,0.908,0,3.644,12.722,5.145c0.733,0.093,1.432,0.128,2.096,0.128c3.631,0,6.285-1.14,7.693-1.932v9.869
				c-0.779,0.478-3.957,2.165-9.8,2.083c-2.771-0.035-5.493-1.21-7.694-2.153c-2.07-0.896-3.445-1.49-4.353-0.884
				c-0.302,0.198-0.664,0.605-0.664,1.443c0,3.224,7.52,5.901,12.722,6.518c0.733,0.081,1.432,0.127,2.096,0.127
				c3.631,0,6.285-1.14,7.693-1.932v9.113c-1.572,0.187-4.482,0.489-5.668,0.559c-1.258,0.082-2.607-0.128-3.807-0.303
				c-1.85-0.279-3.457-0.524-4.411,0.303c-0.478,0.407-0.722,1.012-0.722,1.792c0,1.455,1.154,2.41,3.41,2.829
				c1.582,0.291,3.514,0.303,5.261,0.303h0.396c1.199,0,3.936-0.314,5.541-0.524v16.806c0,1.501,2.643,2.805,6.716,3.317
				l0.149-1.245l0.035-0.291c0.072-0.009,0.127-0.021,0.195-0.031c0.07,0.01,0.125,0.022,0.195,0.031l0.034,0.291l0.151,1.245
				c4.074-0.512,6.714-1.816,6.714-3.317v-16.806c1.607,0.209,4.344,0.524,5.541,0.524h0.395c1.746,0,3.678-0.012,5.262-0.303
				c2.258-0.419,3.41-1.374,3.41-2.829c0-0.78-0.244-1.385-0.723-1.792c-0.953-0.827-2.559-0.582-4.41-0.303
				c-1.199,0.174-2.549,0.384-3.807,0.303c-1.188-0.07-4.098-0.373-5.668-0.559v-9.113c1.408,0.792,4.063,1.932,7.693,1.932
				c0.664,0,1.363-0.046,2.096-0.127c5.201-0.617,12.721-3.294,12.721-6.518c0-0.837-0.361-1.245-0.664-1.443
				c-0.906-0.605-2.279-0.012-4.352,0.884c-2.199,0.943-4.924,2.119-7.693,2.153c-5.842,0.082-9.02-1.606-9.801-2.083v-9.869
				c1.408,0.792,4.063,1.932,7.693,1.932c0.664,0,1.363-0.035,2.096-0.128c12.721-1.501,12.721-4.236,12.721-5.145
				c0-0.837-0.361-1.292-0.664-1.513c-0.988-0.745-2.582-0.291-5.004,0.408c-2.025,0.582-4.539,1.303-7.041,1.338
				c-5.82,0.058-9.01-1.618-9.801-2.096v-9.857c1.408,0.792,4.063,1.932,7.693,1.932c0.664,0,1.363-0.046,2.096-0.128
				c3.563-0.419,13.723-2.443,13.723-6.063c0-0.791-0.361-1.222-0.652-1.432c-1.014-0.722-2.711-0.128-5.285,0.756
				c-2.293,0.804-5.145,1.781-7.773,1.816c-5.854,0.093-9.02-1.606-9.801-2.083v-9.87c1.408,0.792,4.063,1.932,7.693,1.932
				c0.664,0,1.363-0.035,2.096-0.127c8.693-1.025,13.723-2.142,13.723-4.819c0-0.803-0.361-1.257-0.664-1.489
				c-1.082-0.873-3.154-0.396-6.018,0.279c-2.188,0.512-4.666,1.083-7.029,1.117h-0.373c-5.609,0-8.658-1.629-9.428-2.095v-9.858
				c1.408,0.792,4.063,1.932,7.693,1.932c0.664,0,1.363-0.047,2.096-0.128c8.693-1.024,13.723-2.153,13.723-4.831
				c0-0.803-0.361-1.245-0.664-1.489c-1.082-0.873-3.154-0.384-6.018,0.279c-2.188,0.513-4.666,1.095-7.029,1.118
				c-5.842,0.081-9.02-1.618-9.801-2.083v-9.183c1.408,0.792,4.063,1.932,7.693,1.932c0.664,0,1.363-0.035,2.096-0.116
				c8.693-1.036,13.723-2.153,13.723-4.83c0-0.804-0.361-1.257-0.664-1.49c-1.096-0.873-3.154-0.384-6.018,0.28
				c-2.188,0.512-4.666,1.082-7.029,1.117c-5.842,0.07-9.02-1.618-9.801-2.095v-7.705c1.607,0.198,4.344,0.523,5.541,0.523h0.512
				c3.084,0,6.449-0.07,7.857-1.489c0.453-0.442,0.697-1.024,0.697-1.653c0-0.78-0.244-1.385-0.723-1.781
				c-0.953-0.826-2.559-0.593-4.422-0.314c-1.188,0.187-2.537,0.384-3.795,0.314c-1.188-0.07-4.098-0.384-5.668-0.559v-7.262h7.543
				c1.768,0,3.107-0.85,3.131-1.99c2.793,3.479,6.041,7.099,9.637,10.405c0.65,1.455,4.131,8.985,9.822,16.201l0.012,0.011
				c1.561,3.166,14.643,29.027,23.498,29.027c0,0,0,0,0.012,0c2.025,0,3.701-0.78,4.994-2.316
				c4.713-5.609,2.582-19.867,2.258-21.846V416.5c2.338-6.087,2.793-13.058,2.816-13.489h-0.035c0.441-2.538,0.605-4.504,0.65-5.11
				c0-0.011,0-0.011,0-0.023C673.02,392.757,671.799,386.787,671.719,386.414z M668.354,326.72
				c-9.367,24.499-61.055,8.682-61.578,8.519l-0.211,0.687v-5.691c0.92,0.209,4.727,0.978,10.939,0.978
				c6.891,0,16.727-0.943,28.865-4.644c8.238-2.514,13.35-6.494,16.492-10.707C664.723,316.989,670.52,321.052,668.354,326.72z
				 M606.564,347.483c2.084,0.535,15.34,3.817,29.283,3.817c11.486,0,23.463-2.222,30.027-10.067
				c-1.014,5.552-4.412,15.631-15.736,17.621c-14.721,2.583-39.744-6.355-43.574-7.763V347.483z M606.564,234.484
				c2.457-0.431,12.221-1.665,22.137,3.526c1.223,0.641,2.387,1.409,3.445,2.281c-1.291-0.826-2.701-1.513-4.189-2.037
				c-10.441-3.689-19.135-2.444-21.393-2.014V234.484z M606.564,237.801c1.432-0.279,10.336-1.828,20.879,1.897
				c6.053,2.142,9.66,6.553,10.557,9.974c0.338,1.304,0.465,3.166-0.814,4.621c-7.041,7.996-26.641,7.379-30.621,7.169V237.801z
				 M606.564,270.214c1.037,0.105,2.91,0.233,5.262,0.233c8.006,0,21.66-1.536,27.49-11.301c0.535-0.896,0.92-1.897,1.141-2.979
				c1.686,1.187,5.016,4.178,4.922,9.171c-0.068,3.538-1.467,6.541-4.131,8.927c-9.148,8.17-30.541,7.123-34.684,6.844V270.214z
				 M606.564,292.223c0.432,0,1.025,0.011,1.746,0.011c9.555,0,42.178-1.233,45.309-17.935c2.293,1.141,7.264,4.213,7.125,9.194
				c-0.082,2.688-1.258,5.086-3.492,7.123c-10.871,9.881-43.4,9.008-50.688,8.683V292.223z M606.564,310.391
				c0.547,0.012,1.223,0.012,2.002,0.012c10.65,0,41.982-0.792,56.225-9.707c-3.059,5.284-11.684,16.725-30.26,19.669
				c-19.332,3.072-26.197,2.316-27.967,1.979V310.391z M571.749,238.01c9.916-5.19,19.682-3.957,22.137-3.526v1.757
				c-2.258-0.431-10.952-1.676-21.391,2.014c-1.492,0.524-2.898,1.21-4.191,2.037C569.363,239.418,570.528,238.65,571.749,238.01z
				 M562.45,249.672c0.896-3.421,4.504-7.833,10.557-9.974c10.545-3.725,19.447-2.176,20.879-1.897v23.661
				c-3.98,0.21-23.58,0.827-30.621-7.169C561.983,252.838,562.113,250.976,562.45,249.672z M559.995,256.167
				c0.22,1.083,0.604,2.083,1.141,2.979c5.83,9.765,19.482,11.301,27.49,11.301c2.35,0,4.224-0.128,5.26-0.233v10.894
				c-4.144,0.279-25.535,1.327-34.682-6.844c-2.667-2.386-4.063-5.389-4.133-8.927C554.977,260.344,558.307,257.354,559.995,256.167
				z M546.831,274.299c3.129,16.702,35.754,17.935,45.309,17.935c0.723,0,1.316-0.011,1.746-0.011v7.077
				c-7.285,0.325-39.814,1.198-50.686-8.683c-2.234-2.037-3.41-4.435-3.49-7.123C539.567,278.513,544.538,275.44,546.831,274.299z
				 M535.659,300.695c14.245,8.916,45.576,9.707,56.225,9.707c0.781,0,1.455,0,2.002-0.012v11.953
				c-1.77,0.338-8.637,1.094-27.967-1.979C547.342,317.42,538.719,305.979,535.659,300.695z M532.096,326.72
				c-2.164-5.668,3.631-9.73,5.494-10.859c3.141,4.213,8.252,8.193,16.491,10.707c12.14,3.701,21.974,4.644,28.864,4.644
				c6.214,0,10.021-0.768,10.939-0.978v5.691l-0.209-0.687C593.153,335.402,541.465,351.219,532.096,326.72z M593.885,347.483v3.608
				c-3.828,1.408-28.852,10.347-43.574,7.763c-11.326-1.99-14.724-12.069-15.735-17.621c6.563,7.845,18.54,10.067,30.026,10.067
				C578.545,351.3,591.802,348.018,593.885,347.483z M539.336,432.002c-0.605,0.117-1.119-0.023-1.631-0.431
				c-2.07-1.642-3.13-7.018-3.607-11.173c0.885,1.455,1.943,2.689,3.189,3.608c1.443,1.07,3.061,1.606,4.794,1.606
				c0.745,0,1.526-0.104,2.328-0.303c2.468-0.617,4.795-1.652,6.993-2.991C546.866,427.021,541.944,431.491,539.336,432.002z
				 M543.374,418.536c-2.143,0.641-4.004,0.384-5.668-0.78c-4.154-2.897-6.039-10.649-6.844-15.642
				c0.582,0.722,1.293,1.338,2.131,1.839c4.363,2.595,8.926,3.899,13.617,3.899c2.396,0,4.829-0.35,7.285-1.024
				c3.387-0.931,6.646-2.444,9.74-4.353C559.598,407.503,551.731,416.046,543.374,418.536z M552.127,400.555
				c-6.52,1.222-12.676-0.117-18.309-3.98c-4.946-3.398-3.398-13.14-2.34-17.714c2.072,4.307,6.949,7.786,13.617,9.683
				c3.096,0.873,6.68,1.409,10.51,1.409c8.018-0.012,17.121-2.34,24.977-8.811c0.094-0.07,0.152-0.117,0.232-0.186
				C574.752,387.95,564.043,398.297,552.127,400.555z M593.129,382.958h-7.541c-0.664,0-1.258,0.116-1.76,0.326
				c4.877-6.32,8.172-11.907,9.301-13.897V382.958z M582.12,371.586c-11.699,9.637-27.143,11.068-37.256,8.217
				c-5.9-1.665-9.858-4.679-11.174-8.485c-1.676-4.876-0.674-14.641,0.129-20.064c1.631,6.308,5.318,12.791,13.488,14.222
				c1.793,0.314,3.749,0.454,5.832,0.454c16.002,0,38.906-8.275,42.283-9.532c0.128,0.419,0.256,0.861,0.373,1.327
				c0.01,0.012,0.01,0.012,0.01,0.012s0,0-0.01,0.012C595.723,358.179,594.688,361.228,582.12,371.586z M614.863,382.958h-7.543
				v-13.571c1.131,1.99,4.424,7.577,9.301,13.897C616.121,383.074,615.527,382.958,614.863,382.958z M604.656,357.748
				c-0.012-0.012-0.012-0.012-0.012-0.012s0,0,0.012-0.012c0.117-0.465,0.244-0.908,0.373-1.327
				c3.375,1.257,26.279,9.532,42.283,9.532c2.082,0,4.039-0.14,5.83-0.454c8.172-1.432,11.861-7.914,13.488-14.222
				c0.805,5.423,1.805,15.188,0.129,20.064c-1.316,3.806-5.273,6.82-11.172,8.485c-10.115,2.852-25.561,1.42-37.256-8.217
				C605.762,361.228,604.725,358.179,604.656,357.748z M662.744,431.572c-0.512,0.407-1.023,0.547-1.629,0.431
				c-2.607-0.512-7.529-4.981-12.07-9.684c2.201,1.339,4.529,2.374,6.996,2.991c0.805,0.198,1.584,0.303,2.326,0.303
				c1.734,0,3.354-0.536,4.797-1.606c1.246-0.919,2.303-2.153,3.189-3.608C665.875,424.554,664.816,429.93,662.744,431.572z
				 M662.744,417.756c-1.664,1.164-3.527,1.42-5.668,0.78c-8.355-2.49-16.223-11.033-20.264-16.061
				c3.096,1.909,6.355,3.422,9.742,4.353c2.457,0.675,4.889,1.024,7.287,1.024c4.689,0,9.252-1.304,13.617-3.899
				c0.838-0.501,1.547-1.118,2.129-1.839C668.785,407.107,666.898,414.859,662.744,417.756z M666.631,396.575
				c-5.633,3.864-11.789,5.202-18.307,3.98c-11.918-2.258-22.625-12.605-28.689-19.6c0.082,0.069,0.141,0.116,0.232,0.186
				c7.857,6.471,16.957,8.799,24.977,8.811c3.828,0,7.414-0.536,10.51-1.409c6.67-1.897,11.545-5.376,13.619-9.683
				C670.029,383.435,671.576,393.176,666.631,396.575z"/>
			<g>
				<g>
					<g>
						<g>
							<g>
								<path fill="#4EC2E7" d="M569.026,1071.753c-0.49,1.489-3.039,1.724-7.182,1.921c-1.175,0.059-2.27,0.115-3.131,0.221
									c-1.256,0.152-2.117,0.221-2.816,0.221c-2.037,0-2.91-0.65-4.34-1.722c-0.642-0.488-2.143-0.687-3.598-0.872
									c-0.594-0.082-1.199-0.164-1.793-0.269c-0.533-0.139-1.06-0.269-1.559-0.361c-1.42-0.407-2.607-1.093-3.119-2.385
									c-0.303-0.769-0.291-1.525,0.022-2.234c0.617-1.398,2.294-2.271,3.596-2.771c0.735-0.28,1.294-0.419,1.317-0.419
									l0.138-0.036l0.142,0.025c0.65,0.079,16.164,2.093,20.855,5.912C568.362,1069.635,569.399,1070.648,569.026,1071.753z"/>
							</g>
						</g>
						<g>
							<g>
								<path fill="#4EC2E7" d="M566.348,1104.062c-0.291,1.548-0.559,2.898-0.559,3.55c0,0.955-0.371,2.258-2.199,3.037
									c-1.012,0.432-2.398,0.642-4.096,0.642c-1.77,0-3.389-0.233-4.191-0.373c-1.002-0.163-1.664-0.616-1.955-1.327
									c-0.664-1.594,0.664-3.922,3.898-8.543c2.025-2.898,1.943-7.158,1.887-9.975c-0.047-2.385-0.082-3.943,1.186-4.131
									c2.469-0.35,4.354,0.232,5.576,1.711C568.676,1092.016,567.28,1099.268,566.348,1104.062z"/>
							</g>
						</g>
						<g>
							<g>
								<path fill="#4EC2E7" d="M557.002,1131.646c-0.326,0.522-1.023,1.164-2.502,1.164c-2.467,0-5.785-1.758-7.123-3.771
									c-0.709-1.082-0.861-2.189-0.432-3.201c1.515-3.551,6.215-13.209,6.264-13.316l0.255-0.511l0.569,0.093
									c0.023,0.012,2.316,0.407,4.61,0.407c1.302,0,2.339-0.128,3.072-0.37c0.64-0.223,1.233,0,1.536,0.522
									C564.672,1115.188,558.016,1129.957,557.002,1131.646z"/>
							</g>
						</g>
						<g>
							<g>
								<path fill="#4EC2E7" d="M552.569,1148.498c-0.419,0.686-1.375,1.502-3.538,1.502c-3.144,0-7.472-1.701-9.091-3.563
									c-0.547-0.639-0.779-1.269-0.697-1.896c0.384-2.76,5.295-13.257,5.504-13.7l0.664-1.418l0.711,1.395
									c0.011,0.012,1.361,2.422,6.389,3.249c1.617,0.266,2.736,1.034,3.307,2.292
									C557.481,1140.002,553.756,1146.564,552.569,1148.498z"/>
							</g>
						</g>
						<g>
							<g>
								<g>
									<path fill="#4EC2E7" d="M553.836,1104.654c-0.441,1.525-0.826,2.842-0.93,3.518c-0.303,1.977-1.689,3.059-3.912,3.059
										c-1.758,0-3.525-0.652-4.201-0.93c-0.791-0.326-1.105-0.886-1.222-1.293c-0.14-0.477-0.118-1.023,0.069-1.688
										c0.059-0.197,0.129-0.418,0.221-0.641v-0.011c0.57-1.407,1.771-3.258,3.586-5.89c1.875-2.713,2.456-6.995,2.852-9.822
										c0.359-2.676,0.522-3.888,1.594-3.947c1.502-0.068,2.607,0.41,3.363,1.41
										C557.643,1091.598,555.35,1099.453,553.836,1104.654z"/>
								</g>
							</g>
							<g>
								<g>
									<path fill="#4EC2E7" d="M543.026,1130.389c-0.467,0.78-1.199,1.21-2.037,1.21c-1.014,0-2.061-0.652-2.724-1.698
										c-0.827-1.293-0.897-2.864-0.222-4.318c1.559-3.316,4.807-13.594,4.842-13.699l0.256-0.803l0.768,0.314
										c0.023,0.012,2.293,0.955,4.121,0.955c0.371,0,0.709-0.049,0.977-0.13c0.514-0.149,1.002,0.036,1.245,0.466
										C551.497,1114.897,543.118,1130.248,543.026,1130.389z"/>
								</g>
							</g>
							<g>
								<g>
									<path fill="#4EC2E7" d="M537.752,1143.621c-0.559,0.723-1.07,1.385-1.455,1.932c-0.941,1.352-2.117,2.119-3.236,2.119
										c-0.639,0-1.197-0.268-1.582-0.745c-0.465-0.604-0.582-1.501-0.338-2.503c0.664-2.631,4.435-13.094,4.586-13.535
										l1.49,0.396c0.012-0.127,0-0.198,0-0.198c0,0.012,0.279,0.769,3.061,1.885c1.188,0.478,1.629,1.269,1.793,1.851
										C542.723,1137.231,539.963,1140.771,537.752,1143.621z"/>
								</g>
							</g>
						</g>
						<g>
							<g>
								<g>
									<path fill="#4EC2E7" d="M544.969,1103.318c-0.49,1.384-0.908,2.582-1.061,3.212c-0.012,0.046-0.022,0.093-0.047,0.139
										v0.011c-0.092,0.223-0.162,0.443-0.221,0.641c-0.523,1.234-1.523,1.91-2.885,1.91c-1.398,0-2.76-0.723-3.283-1.037
										c-0.432-0.256-0.711-0.652-0.814-1.129c-0.117-0.512-0.035-1.105,0.244-1.839c0.012,0,0.012-0.012,0.012-0.012
										s0-0.011,0.012-0.022c0.151-0.269,0.303-0.56,0.466-0.85c0.44-0.791,0.873-1.571,1.28-2.34
										c0.465-0.734,1.012-1.548,1.641-2.48c1.652-2.432,2.537-6.342,3.119-8.938c0.594-2.582,0.803-3.561,1.723-3.585
										c1.291,0,1.955,0.593,2.305,1.082C549.229,1090.584,547.286,1096.719,544.969,1103.318z"/>
								</g>
							</g>
							<g>
								<g>
									<path fill="#4EC2E7" d="M534.448,1127.129c-0.361,0.582-0.886,0.907-1.49,0.907c-0.873,0-1.793-0.675-2.515-1.839
										c-0.837-1.336-1.478-3.57-0.535-5.457c1.501-3.025,5.901-11.219,5.948-11.301l0.384-0.711l0.687,0.408
										c0.441,0.267,1.805,0.953,2.84,0.953c0.197,0,0.373-0.034,0.512-0.08l0.338-0.047c0.338,0,0.639,0.175,0.803,0.466
										C542.477,1112.313,534.528,1126.99,534.448,1127.129z"/>
								</g>
							</g>
							<g>
								<g>
									<path fill="#4EC2E7" d="M528.918,1138.221c-0.547,0.745-1.012,1.387-1.314,1.887c-0.548,0.873-1.339,1.35-2.234,1.35
										c-0.967,0-1.955-0.559-2.643-1.514c-0.723-0.989-0.953-2.188-0.629-3.224l0.105-0.36c0.325-1.083,0.559-1.874,5.527-11.337
										l1.34-2.548l0.115,2.875c0,0.094,0.129,2.258,2.258,3.492c0.617,0.348,1.014,0.895,1.152,1.559
										C533.049,1132.542,530.756,1135.695,528.918,1138.221z"/>
								</g>
							</g>
						</g>
						<g>
							<g>
								<g>
									<path fill="#4EC2E7" d="M538.672,1102.002c-0.851,1.328-1.432,2.35-1.746,3.189c-0.012,0.012-0.012,0.022-0.012,0.022
										s0,0.012-0.012,0.012c-0.432,0.804-0.779,1.454-0.966,1.861c-0.757,1.734-1.886,2.096-2.7,2.096
										c-1.339,0-2.467-0.978-2.898-1.396c-0.746-0.723-0.594-1.678,0.176-2.957l0.012-0.012c0.104-0.164,0.209-0.325,0.336-0.5
										c0-0.012,0.012-0.023,0.024-0.048c0.767-1.082,1.907-2.396,3.317-3.969c1.779-1.989,3.246-5.399,4.225-7.656
										c1-2.305,1.292-3.003,2.047-3.003c1.072,0.116,1.537,0.65,1.758,1.094C543.268,1092.75,541.313,1097.078,538.672,1102.002z
										"/>
								</g>
							</g>
							<g>
								<g>
									<path fill="#4EC2E7" d="M524.485,1124.43c-0.454,0.547-0.943,0.674-1.27,0.674c-0.371,0-1.094-0.16-1.652-1.245
										c-0.408-0.78-0.641-1.839-0.582-2.921v-0.023l0.303-1.629v-0.023c0.15-0.406,0.338-0.803,0.594-1.164
										c1.779-2.537,6.843-9.369,6.891-9.438l0.522-0.711l0.63,0.617c0.324,0.314,1.512,1.232,2.223,1.094l0.209-0.023
										c0.35,0,0.652,0.188,0.803,0.501C533.946,1111.801,524.579,1124.313,524.485,1124.43z"/>
								</g>
							</g>
							<g>
								<g>
									<path fill="#4EC2E7" d="M522.389,1127.036c0.047,1.874-2.176,4.189-4.145,6.227c-0.568,0.593-1.115,1.163-1.477,1.596
										c-0.629,0.757-1.27,1.141-1.896,1.141c-0.525,0-0.99-0.269-1.281-0.745c-0.49-0.828-0.418-2.164,0.199-3.342
										c1.058-2.023,5.458-10.065,5.504-10.147l2.258-4.155c0.012-0.012,0.024-0.023,0.024-0.034
										c0.011-0.014,0.022-0.024,0.034-0.036l-0.326,1.723v0.023c-0.186,0.536-0.279,1.082-0.303,1.629v0.023l-0.256,1.339
										c-0.012,0.011-0.338,2.003,1.012,3.282C522.158,1125.955,522.377,1126.466,522.389,1127.036z"/>
								</g>
							</g>
						</g>
						<g>
							<g>
								<g>
									<path fill="#4EC2E7" d="M533.143,1100.908c-0.965,1.303-1.873,2.525-2.129,3.097c-0.047,0.093-0.082,0.187-0.128,0.266
										c-0.013,0.024-0.024,0.036-0.024,0.048c-0.127,0.175-0.232,0.336-0.336,0.5l-0.012,0.012
										c-0.642,0.791-1.422,0.932-1.898,0.932c-1.291,0-2.467-0.92-2.922-1.316c-0.313-0.291-0.5-0.664-0.511-1.094
										c-0.036-1.163,1.093-2.514,3.841-5.307c1.256-1.28,2.643-3.037,3.747-4.458c1.942-2.478,2.491-3.119,3.166-3.119
										l0.14,0.011c1.014,0.152,1.443,0.724,1.629,1.153C538.463,1093.493,536.297,1096.648,533.143,1100.908z"/>
								</g>
							</g>
							<g>
								<g>
									<path fill="#4EC2E7" d="M521.61,1117.539v-0.023l-0.034,0.06c0,0.011-0.013,0.022-0.024,0.034
										c-0.314,0.396-0.512,0.641-0.523,0.652c-0.418,0.453-0.861,0.545-1.152,0.545c-0.709,0-1.373-0.521-1.828-1.43
										c-0.279-0.559-0.488-1.27-0.523-2.014l0.28-1.969c0.116-0.277,0.267-0.545,0.454-0.791c1.547-2.07,5.992-7.646,6.029-7.691
										l0.512-0.642l0.604,0.548c0.467,0.407,1.455,1.07,2.107,1.07l0.256-0.022c0.361,0,0.676,0.198,0.814,0.522
										C529.198,1107.787,523.471,1115.188,521.61,1117.539z"/>
								</g>
							</g>
							<g>
								<g>
									<path fill="#4EC2E7" d="M519.248,1120.355c0.022,1.664-1.942,3.503-3.679,5.133c-0.512,0.477-1,0.92-1.314,1.269
										c-0.548,0.618-1.129,0.921-1.711,0.921c-0.559,0-1.047-0.291-1.35-0.805c-0.466-0.767-0.432-1.896,0.092-2.873
										c0.897-1.676,4.527-8.102,4.691-8.382l2.036-3.607l-0.209,1.384c-0.245,0.631-0.325,1.316-0.28,1.969l-0.115,0.758
										c-0.013,0.057-0.211,1.615,1.127,2.757C518.991,1119.273,519.235,1119.785,519.248,1120.355z"/>
								</g>
							</g>
						</g>
						<g>
							<g>
								<path fill="#4EC2E7" d="M567.465,1085.056c-0.373,0.839-1.188,1.269-2.408,1.269c-1.373,0-3.213-0.535-5.168-1.094
									c-2.096-0.604-4.26-1.234-5.936-1.234c-1.361,0-2.969,0.35-4.656,0.723c-1.781,0.385-3.619,0.791-5.307,0.791
									c-2.002,0-3.502-0.582-4.563-1.768c-3.199-3.574,0.15-10.953,0.628-11.955c0.104-0.512,0.56-1.198,2.153-1.198
									c0.652,0,1.479,0.116,2.398,0.303c0.499,0.093,1.025,0.223,1.559,0.361c3.793,0.978,8.393,2.794,9.73,3.503
									c0.43,0.232,1.094,0.338,2.094,0.338c0.561,0,1.152-0.024,1.77-0.059c0.664-0.033,1.328-0.07,1.98-0.07
									c1.313,0,2.979,0.116,4.178,1.082C568.619,1078.202,568.735,1082.205,567.465,1085.056z"/>
							</g>
						</g>
					</g>
					<g>
						<g>
							<g>
								<path fill="#4EC2E7" d="M550.438,825.41c-0.012,0-0.035-0.012-0.046-0.012c-0.361-0.07-0.71-0.15-1.06-0.221
									c-1.979-0.432-3.537-0.757-4.424-0.757c-1.686,0.034-4.328,0-4.34,0l-0.104-0.011l-0.093,0.033
									c-1.188,0.314-7.123,2.025-7.123,4.901c0,0.21-0.012,0.512-0.023,0.884c-0.117,3.992-0.5,16.131,7.111,18.506
									c2.362,0.744,4.572,1.117,6.564,1.117c2.676,0,4.293-0.688,4.935-1.023c0.757,0.161,2.724,0.57,4.749,0.57
									c2.094,0,3.642-0.443,4.607-1.305c2.828-2.548,3.365-12.582,2.91-15.48c-0.035-0.291-0.082-0.582-0.115-0.859
									c-0.419-3.014-0.909-4.878-5.693-5.121c-2.082-0.104-4.526-0.547-6.785-1.002c-0.094-0.023-0.186-0.035-0.279-0.057
									C550.963,825.515,550.695,825.469,550.438,825.41z M552.452,847.373c0.047,0.15,0.082,0.291,0.117,0.441l-1.502,0.338
									c-0.047-0.197-0.092-0.384-0.151-0.582c-0.523-1.815-1.618-3.678-3.271-5.553c-0.431-0.488-0.896-0.941-1.361-1.406
									c-1.117-1.094-2.281-2.235-2.979-3.771c-0.596-1.316-1.025-2.664-1.328-4.133l1.502-0.314
									c0.279,1.362,0.675,2.607,1.232,3.806c0.582,1.282,1.584,2.271,2.654,3.319c0.49,0.488,0.979,0.977,1.431,1.477
									C550.672,843.125,551.905,845.266,552.452,847.373z"/>
							</g>
						</g>
						<g>
							<g>
								<path fill="#4EC2E7" d="M533.852,751.191c3.283,19.938,6.693,40.549,3.377,46.285c-3.854,6.682-6.949,17.029-5.215,22.104
									c0.488,1.443,1.338,2.42,2.525,2.909c2.828,1.163,5.658,0.966,7.926,0.813c2.014-0.139,3.598-0.254,4.4,0.548
									c0.605,0.604,1.896,1.164,3.526,1.548c0.011,0,0.034,0.012,0.046,0.012c0.257,0.059,0.525,0.104,0.791,0.164
									c0.094,0.021,0.186,0.033,0.279,0.057c1.141,0.199,2.398,0.315,3.656,0.315c1.744,0,3.502-0.223,5.05-0.745
									c2.839-0.989,4.505-2.875,4.819-5.48c0.709-5.879-2.887-16.424-6.682-27.586c-1.279-3.746-2.606-7.621-3.77-11.369
									c-5.215-16.668-27.956-155.912-26.746-163.732l0.047-0.338c0.336-2.21,0.662-4.295,1.642-6.25
									c0.743-1.477,2.257-2.432,3.503-3.107l-0.023-0.047c-0.42-0.277-0.814-0.627-1.176-1.035
									c-1.979-2.129-3.34-5.644-4.307-8.183c-0.373-0.966-0.697-1.803-0.906-2.153c-0.385-0.627-0.443-1.209-0.281-1.734
									c0.117-0.441,0.396-0.848,0.732-1.232l0.025-0.28c-0.49-0.037-11.779-0.805-17.727,4.712
									c-2.327,2.167-3.515,4.994-3.515,8.426c0,7.928,6.169,35.916,12.698,65.561c5.119,23.244,10.404,47.264,12.068,59.148
									C531.538,737.154,532.713,744.29,533.852,751.191z M542.198,795.139l1.525,0.197c-0.115,0.932,0.478,1.851,1.117,2.816
									c0.303,0.467,0.617,0.943,0.85,1.432c1.561,3.271,3.039,6.786,3.225,10.219c0.186,3.573-0.082,7.191-0.723,9.918
									c-0.068,0.303-0.187,0.627-0.313,0.963c-0.222,0.619-0.489,1.387-0.292,1.724l-0.035,0.022
									c-0.453-0.324-0.953-0.522-1.535-0.639h-0.012c-0.582-0.104-1.223-0.141-1.909-0.115c-0.512,0.011-1.048,0.045-1.606,0.082
									h-0.012c-0.582-1.643-0.627-4.1-0.627-4.473c-0.014-1.057,0.115-2.443,1.176-3.689c1.163-1.361,2.816-2.104,4.409-2.036
									c-0.011-0.557-0.034-1.116-0.058-1.675c-0.174-3.167-1.582-6.506-3.072-9.637c-0.188-0.395-0.467-0.816-0.746-1.246
									C542.827,797.887,542,796.629,542.198,795.139z M540.301,793.754c0,1.932,0.15,3.666,0.861,5.771
									c1.291,3.818,1.688,10.139-2.55,11.896L538.031,810c3.237-1.35,2.749-6.842,1.679-9.986
									c-0.328-0.963-0.549-1.861-0.689-2.723c-0.197-1.187-0.256-2.328-0.256-3.537H540.301z"/>
							</g>
						</g>
						<g>
							<path fill="#4EC2E7" d="M544.514,1050.792c0.152,0.082,0.314,0.152,0.466,0.198c0.187,0.047,0.384,0.07,0.57,0.07
								c1.153,0,2.175-0.91,3.037-2.712c1.595-3.331,2.597-10.243,1.188-13.362c-0.117-0.291-0.279-0.559-0.453-0.779
								c-0.13-0.152-0.292-0.443-0.467-0.85c-2.992-6.413-13.269-42.609-12.594-68.459c0.676-26.174,2.234-72.623,2.828-82.505
								c0.117-1.909,0.164-3.528,0.197-4.958c0.152-5.389,0.211-7.205,3.447-8.799c0.162-0.082,0.336-0.164,0.521-0.246l0.315-0.149
								l0.104-0.339c0.023-0.094,0.069-0.232,0.117-0.43c0.616-2.141,2.688-10.102,1.455-14.201
								c-0.129-0.44-0.303-0.836-0.514-1.174c-0.057-0.094-0.115-0.174-0.162-0.256c-0.478-0.617-1.094-0.988-1.838-1.106
								c-0.396-0.068-0.791-0.104-1.188-0.104c-3.119,0-10.359,2.152-10.359,22.079c0,4.782-0.104,13.022-0.244,22.554
								c-0.373,26.735-0.873,63.363,0.256,76.631c0.99,11.625,8.043,70.203,12.617,78.084
								C544.049,1050.396,544.293,1050.676,544.514,1050.792z"/>
						</g>
						<g>
							<path fill="#4EC2E7" d="M565.952,1040.352c-3.42-6.11-3.037-17.119-2.478-33.786c0.221-6.319,0.466-13.489,0.534-21.472
								c0.141-16.029-0.824-40.713-1.594-60.558c-0.641-16.421-1.188-30.608-0.966-35.405c0.534-10.997,2.2-15.373,5.761-21.031
								c4.085-6.506,0.128-14.594-3.234-17.294c-1.969-1.571-4.365-0.279-6.494,0.873c-1.969,1.06-3.213,1.652-3.877,0.907
								c-1.873-2.082-6.412-1.373-9.031-0.744c0.047,0.082,0.105,0.162,0.162,0.256c0.211,0.338,0.385,0.733,0.514,1.174
								c1.232,4.1-0.839,12.061-1.455,14.201c-0.048,0.197-0.094,0.336-0.117,0.43l-0.104,0.339l-0.315,0.149
								c-0.186,0.082-0.359,0.164-0.521,0.246c0.545,0.803,1.873,3.339,3.793,10.707c2.734,10.475,8.334,123.275,8.125,133.18
								c-0.188,9.113-4.086,17.273-5.797,20.834c0.175,0.406,0.337,0.697,0.467,0.85c0.174,0.221,0.336,0.488,0.453,0.779
								c1.408,3.119,0.406,10.031-1.188,13.362c-0.862,1.802-1.884,2.712-3.037,2.712c-0.187,0-0.384-0.023-0.57-0.07
								c-0.151-0.046-0.313-0.116-0.466-0.198c-0.221-0.116-0.465-0.396-0.697-0.813c-0.873,0.988-1.211,2.791-0.862,4.91
								c0.489,2.921,2.387,6.517,6.122,7.03c1.432,0.187,2.734,0.291,4.004,0.384c3.665,0.256,6.82,0.489,10.487,3.049
								c0.953,0.676,1.862,1.014,2.71,1.014c0.279,0,0.559-0.036,0.814-0.117c1.956-0.547,2.969-2.84,3.935-5.063
								c0.536-1.209,1.095-2.466,1.688-3.06c2.257-2.26-0.221-6.506-3.98-12.932
								C567.862,1043.693,566.918,1042.086,565.952,1040.352z"/>
						</g>
						<g>
							<g>
								<path fill="#4EC2E7" d="M648.643,825.574c-0.094,0.021-0.186,0.033-0.279,0.057c-2.258,0.455-4.701,0.897-6.785,1.002
									c-4.783,0.243-5.271,2.107-5.691,5.121c-0.035,0.277-0.08,0.568-0.117,0.859c-0.451,2.898,0.082,12.933,2.91,15.48
									c0.965,0.861,2.514,1.305,4.609,1.305c2.025,0,3.992-0.409,4.748-0.57c0.641,0.336,2.258,1.023,4.938,1.023
									c1.988,0,4.199-0.373,6.561-1.117c7.613-2.375,7.23-14.514,7.113-18.506c-0.014-0.372-0.023-0.674-0.023-0.884
									c0-2.876-5.936-4.587-7.123-4.901l-0.094-0.033l-0.104,0.011c-0.012,0-2.654,0.034-4.342,0
									c-0.885,0-2.443,0.325-4.424,0.757c-0.348,0.07-0.697,0.15-1.057,0.221c-0.014,0-0.037,0.012-0.049,0.012
									C649.178,825.469,648.912,825.515,648.643,825.574z M651.076,840.994c0.453-0.5,0.941-0.988,1.432-1.477
									c1.07-1.049,2.07-2.037,2.652-3.319c0.559-1.198,0.955-2.443,1.234-3.806l1.5,0.314c-0.303,1.469-0.732,2.816-1.324,4.133
									c-0.701,1.536-1.865,2.678-2.98,3.771c-0.467,0.465-0.934,0.918-1.361,1.406c-1.654,1.875-2.746,3.737-3.271,5.553
									c-0.057,0.198-0.105,0.385-0.15,0.582l-1.504-0.338c0.037-0.15,0.072-0.291,0.117-0.441
									C647.967,845.266,649.201,843.125,651.076,840.994z"/>
							</g>
						</g>
						<g>
							<g>
								<path fill="#4EC2E7" d="M690.508,597.387c-5.949-5.517-17.238-4.749-17.727-4.712l0.023,0.28
									c0.338,0.384,0.615,0.791,0.734,1.232c0.16,0.525,0.104,1.107-0.279,1.734c-0.211,0.35-0.537,1.187-0.91,2.153
									c-0.967,2.539-2.328,6.054-4.305,8.183c-0.361,0.408-0.758,0.758-1.176,1.035l-0.021,0.047
									c1.242,0.676,2.756,1.631,3.502,3.107c0.979,1.955,1.303,4.04,1.641,6.25l0.045,0.338
									c1.213,7.82-21.529,147.064-26.744,163.732c-1.164,3.748-2.49,7.623-3.771,11.369c-3.793,11.162-7.391,21.707-6.68,27.586
									c0.314,2.605,1.979,4.491,4.818,5.48c1.549,0.522,3.305,0.745,5.051,0.745c1.258,0,2.514-0.116,3.654-0.315
									c0.094-0.023,0.186-0.035,0.279-0.057c0.27-0.06,0.535-0.105,0.791-0.164c0.012,0,0.035-0.012,0.049-0.012
									c1.627-0.384,2.92-0.943,3.525-1.548c0.803-0.802,2.387-0.687,4.398-0.548c2.271,0.152,5.098,0.35,7.926-0.813
									c1.188-0.489,2.037-1.466,2.527-2.909c1.732-5.074-1.363-15.422-5.217-22.104c-3.316-5.736,0.094-26.348,3.377-46.285
									c1.141-6.901,2.316-14.037,3.234-20.67c1.666-11.885,6.949-35.904,12.07-59.148c6.529-29.645,12.697-57.633,12.697-65.561
									C694.021,602.381,692.836,599.553,690.508,597.387z M657.395,821.758h-0.012c-0.559-0.037-1.094-0.071-1.607-0.082
									c-0.686-0.025-1.324,0.011-1.906,0.115h-0.012c-0.582,0.116-1.082,0.314-1.537,0.639l-0.035-0.022
									c0.199-0.337-0.068-1.104-0.291-1.724c-0.127-0.336-0.244-0.66-0.314-0.963c-0.639-2.727-0.906-6.345-0.721-9.918
									c0.188-3.433,1.664-6.947,3.225-10.219c0.23-0.488,0.547-0.965,0.85-1.432c0.639-0.966,1.234-1.885,1.115-2.816l1.525-0.197
									c0.199,1.49-0.627,2.748-1.361,3.863c-0.279,0.43-0.559,0.852-0.746,1.246c-1.488,3.131-2.898,6.47-3.07,9.637
									c-0.025,0.559-0.049,1.118-0.059,1.675c1.594-0.068,3.248,0.675,4.412,2.036c1.057,1.246,1.186,2.633,1.176,3.689
									C658.025,817.658,657.977,820.115,657.395,821.758z M661.84,810l-0.58,1.421c-4.238-1.757-3.842-8.077-2.549-11.896
									c0.709-2.105,0.861-3.84,0.861-5.771h1.535c0,1.209-0.057,2.351-0.256,3.537c-0.141,0.861-0.361,1.76-0.686,2.723
									C659.096,803.158,658.605,808.65,661.84,810z"/>
							</g>
						</g>
						<g>
							<path fill="#4EC2E7" d="M668.686,872.71c0-19.927-7.24-22.079-10.359-22.079c-0.395,0-0.791,0.036-1.186,0.104
								c-0.746,0.118-1.365,0.489-1.84,1.106c-0.047,0.082-0.105,0.162-0.164,0.256c-0.209,0.338-0.383,0.733-0.51,1.174
								c-1.234,4.1,0.836,12.061,1.453,14.201c0.047,0.197,0.094,0.336,0.117,0.43l0.104,0.339l0.314,0.149
								c0.186,0.082,0.361,0.164,0.525,0.246c3.234,1.594,3.291,3.41,3.443,8.799c0.033,1.43,0.082,3.049,0.197,4.958
								c0.594,9.882,2.154,56.331,2.828,82.505c0.676,25.85-9.602,62.046-12.594,68.459c-0.172,0.406-0.336,0.697-0.463,0.85
								c-0.176,0.221-0.34,0.488-0.455,0.779c-1.408,3.119-0.406,10.031,1.188,13.362c0.861,1.802,1.887,2.712,3.037,2.712
								c0.186,0,0.383-0.023,0.57-0.07c0.152-0.046,0.316-0.116,0.465-0.198c0.221-0.116,0.467-0.396,0.699-0.813
								c4.574-7.881,11.627-66.459,12.615-78.084c1.129-13.268,0.631-49.896,0.256-76.631
								C668.789,885.732,668.686,877.492,668.686,872.71z"/>
						</g>
						<g>
							<path fill="#4EC2E7" d="M655.357,1050.792c-0.148,0.082-0.313,0.152-0.465,0.198c-0.188,0.047-0.385,0.07-0.57,0.07
								c-1.15,0-2.176-0.91-3.037-2.712c-1.594-3.331-2.596-10.243-1.188-13.362c0.115-0.291,0.279-0.559,0.455-0.779
								c0.127-0.152,0.291-0.443,0.463-0.85c-1.709-3.561-5.607-11.721-5.795-20.834c-0.209-9.904,5.389-122.705,8.123-133.18
								c1.922-7.368,3.248-9.904,3.797-10.707c-0.164-0.082-0.34-0.164-0.525-0.246l-0.314-0.149l-0.104-0.339
								c-0.023-0.094-0.07-0.232-0.117-0.43c-0.617-2.141-2.688-10.102-1.453-14.201c0.127-0.44,0.301-0.836,0.51-1.174
								c0.059-0.094,0.117-0.174,0.164-0.256c-2.619-0.629-7.158-1.338-9.033,0.744c-0.662,0.745-1.908,0.152-3.875-0.907
								c-2.129-1.152-4.527-2.444-6.492-0.873c-3.365,2.7-7.322,10.788-3.238,17.294c3.563,5.658,5.227,10.034,5.762,21.031
								c0.221,4.797-0.326,18.984-0.965,35.405c-0.768,19.845-1.734,44.528-1.596,60.558c0.07,7.982,0.314,15.152,0.535,21.472
								c0.559,16.667,0.943,27.676-2.479,33.786c-0.967,1.734-1.908,3.342-2.781,4.842c-3.76,6.426-6.238,10.672-3.98,12.932
								c0.594,0.594,1.152,1.851,1.688,3.06c0.967,2.224,1.979,4.517,3.934,5.063c0.256,0.081,0.535,0.117,0.814,0.117
								c0.852,0,1.758-0.338,2.713-1.014c3.666-2.56,6.818-2.793,10.486-3.049c1.268-0.093,2.57-0.197,4.002-0.384
								c3.738-0.514,5.635-4.109,6.123-7.03c0.35-2.119,0.01-3.922-0.861-4.91C655.824,1050.396,655.578,1050.676,655.357,1050.792z
								"/>
						</g>
					</g>
					<g>
						<g>
							<g>
								<path fill="#4EC2E7" d="M630.848,1071.753c0.488,1.489,3.037,1.724,7.18,1.921c1.178,0.059,2.27,0.115,3.133,0.221
									c1.256,0.152,2.117,0.221,2.814,0.221c2.037,0,2.91-0.65,4.344-1.722c0.639-0.488,2.141-0.687,3.596-0.872
									c0.594-0.082,1.197-0.164,1.791-0.269c0.537-0.139,1.061-0.269,1.561-0.361c1.42-0.407,2.607-1.093,3.117-2.385
									c0.303-0.769,0.293-1.525-0.021-2.234c-0.617-1.398-2.295-2.271-3.596-2.771c-0.734-0.28-1.293-0.419-1.316-0.419
									l-0.139-0.036l-0.139,0.025c-0.652,0.079-16.168,2.093-20.857,5.912C631.512,1069.635,630.475,1070.648,630.848,1071.753z"
									/>
							</g>
						</g>
						<g>
							<g>
								<path fill="#4EC2E7" d="M633.523,1104.062c0.291,1.548,0.561,2.898,0.561,3.55c0,0.955,0.371,2.258,2.199,3.037
									c1.012,0.432,2.396,0.642,4.098,0.642c1.768,0,3.385-0.233,4.188-0.373c1.002-0.163,1.664-0.616,1.955-1.327
									c0.664-1.594-0.662-3.922-3.898-8.543c-2.025-2.898-1.943-7.158-1.885-9.975c0.047-2.385,0.082-3.943-1.188-4.131
									c-2.467-0.35-4.354,0.232-5.574,1.711C631.197,1092.016,632.594,1099.268,633.523,1104.062z"/>
							</g>
						</g>
						<g>
							<g>
								<path fill="#4EC2E7" d="M642.869,1131.646c0.326,0.522,1.025,1.164,2.502,1.164c2.469,0,5.787-1.758,7.125-3.771
									c0.709-1.082,0.861-2.189,0.43-3.201c-1.514-3.551-6.215-13.209-6.262-13.316l-0.256-0.511l-0.57,0.093
									c-0.023,0.012-2.316,0.407-4.609,0.407c-1.303,0-2.34-0.128-3.072-0.37c-0.641-0.223-1.234,0-1.537,0.522
									C635.199,1115.188,641.857,1129.957,642.869,1131.646z"/>
							</g>
						</g>
						<g>
							<g>
								<path fill="#4EC2E7" d="M647.303,1148.498c0.42,0.686,1.375,1.502,3.541,1.502c3.141,0,7.471-1.701,9.088-3.563
									c0.549-0.639,0.779-1.269,0.699-1.896c-0.383-2.76-5.295-13.257-5.506-13.7l-0.662-1.418l-0.709,1.395
									c-0.014,0.012-1.363,2.422-6.391,3.249c-1.619,0.266-2.736,1.034-3.307,2.292
									C642.393,1140.002,646.117,1146.564,647.303,1148.498z"/>
							</g>
						</g>
						<g>
							<g>
								<g>
									<path fill="#4EC2E7" d="M646.035,1104.654c0.443,1.525,0.828,2.842,0.932,3.518c0.303,1.977,1.688,3.059,3.91,3.059
										c1.758,0,3.527-0.652,4.201-0.93c0.791-0.326,1.107-0.886,1.223-1.293c0.139-0.477,0.117-1.023-0.07-1.688
										c-0.057-0.197-0.127-0.418-0.221-0.641v-0.011c-0.57-1.407-1.768-3.258-3.584-5.89c-1.873-2.713-2.455-6.995-2.852-9.822
										c-0.361-2.676-0.523-3.888-1.596-3.947c-1.5-0.068-2.607,0.41-3.363,1.41
										C642.23,1091.598,644.523,1099.453,646.035,1104.654z"/>
								</g>
							</g>
							<g>
								<g>
									<path fill="#4EC2E7" d="M656.85,1130.389c0.463,0.78,1.197,1.21,2.037,1.21c1.012,0,2.059-0.652,2.723-1.698
										c0.824-1.293,0.895-2.864,0.221-4.318c-1.561-3.316-4.809-13.594-4.842-13.699l-0.258-0.803l-0.768,0.314
										c-0.023,0.012-2.291,0.955-4.119,0.955c-0.373,0-0.709-0.049-0.979-0.13c-0.51-0.149-1,0.036-1.244,0.466
										C648.375,1114.897,656.756,1130.248,656.85,1130.389z"/>
								</g>
							</g>
							<g>
								<g>
									<path fill="#4EC2E7" d="M662.121,1143.621c0.559,0.723,1.07,1.385,1.455,1.932c0.943,1.352,2.117,2.119,3.234,2.119
										c0.641,0,1.199-0.268,1.584-0.745c0.465-0.604,0.582-1.501,0.336-2.503c-0.662-2.631-4.436-13.094-4.584-13.535
										l-1.492,0.396c-0.012-0.127,0-0.198,0-0.198c0,0.012-0.277,0.769-3.059,1.885c-1.188,0.478-1.631,1.269-1.795,1.851
										C657.15,1137.231,659.91,1140.771,662.121,1143.621z"/>
								</g>
							</g>
						</g>
						<g>
							<g>
								<g>
									<path fill="#4EC2E7" d="M654.902,1103.318c0.492,1.384,0.91,2.582,1.061,3.212c0.014,0.046,0.025,0.093,0.047,0.139v0.011
										c0.094,0.223,0.164,0.443,0.221,0.641c0.525,1.234,1.525,1.91,2.887,1.91c1.396,0,2.758-0.723,3.283-1.037
										c0.43-0.256,0.709-0.652,0.814-1.129c0.115-0.512,0.035-1.105-0.244-1.839c-0.012,0-0.012-0.012-0.012-0.012
										s0-0.011-0.014-0.022c-0.15-0.269-0.303-0.56-0.463-0.85c-0.443-0.791-0.873-1.571-1.283-2.34
										c-0.463-0.734-1.012-1.548-1.641-2.48c-1.652-2.432-2.537-6.342-3.119-8.938c-0.592-2.582-0.801-3.561-1.721-3.585
										c-1.293,0-1.957,0.593-2.305,1.082C650.646,1090.584,652.59,1096.719,654.902,1103.318z"/>
								</g>
							</g>
							<g>
								<g>
									<path fill="#4EC2E7" d="M665.426,1127.129c0.361,0.582,0.885,0.907,1.488,0.907c0.873,0,1.795-0.675,2.516-1.839
										c0.838-1.336,1.477-3.57,0.535-5.457c-1.502-3.025-5.9-11.219-5.949-11.301l-0.383-0.711l-0.688,0.408
										c-0.441,0.267-1.803,0.953-2.838,0.953c-0.197,0-0.373-0.034-0.512-0.08l-0.34-0.047c-0.336,0-0.639,0.175-0.801,0.466
										C657.395,1112.313,665.344,1126.99,665.426,1127.129z"/>
								</g>
							</g>
							<g>
								<g>
									<path fill="#4EC2E7" d="M670.955,1138.221c0.547,0.745,1.01,1.387,1.314,1.887c0.547,0.873,1.338,1.35,2.234,1.35
										c0.967,0,1.955-0.559,2.643-1.514c0.721-0.989,0.955-2.188,0.627-3.224l-0.104-0.36c-0.326-1.083-0.561-1.874-5.529-11.337
										l-1.34-2.548l-0.115,2.875c0,0.094-0.127,2.258-2.256,3.492c-0.617,0.348-1.016,0.895-1.154,1.559
										C666.822,1132.542,669.115,1135.695,670.955,1138.221z"/>
								</g>
							</g>
						</g>
						<g>
							<g>
								<g>
									<path fill="#4EC2E7" d="M661.199,1102.002c0.852,1.328,1.432,2.35,1.746,3.189c0.014,0.012,0.014,0.022,0.014,0.022
										s0,0.012,0.012,0.012c0.43,0.804,0.779,1.454,0.967,1.861c0.754,1.734,1.885,2.096,2.697,2.096
										c1.34,0,2.469-0.978,2.898-1.396c0.746-0.723,0.594-1.678-0.174-2.957l-0.012-0.012c-0.105-0.164-0.209-0.325-0.338-0.5
										c0-0.012-0.01-0.023-0.021-0.048c-0.77-1.082-1.91-2.396-3.32-3.969c-1.779-1.989-3.246-5.399-4.223-7.656
										c-1-2.305-1.291-3.003-2.049-3.003c-1.07,0.116-1.535,0.65-1.756,1.094C656.604,1092.75,658.559,1097.078,661.199,1102.002
										z"/>
								</g>
							</g>
							<g>
								<g>
									<path fill="#4EC2E7" d="M675.389,1124.43c0.453,0.547,0.941,0.674,1.27,0.674c0.373,0,1.092-0.16,1.652-1.245
										c0.406-0.78,0.639-1.839,0.582-2.921v-0.023l-0.303-1.629v-0.023c-0.152-0.406-0.338-0.803-0.594-1.164
										c-1.781-2.537-6.844-9.369-6.889-9.438l-0.527-0.711l-0.627,0.617c-0.326,0.314-1.514,1.232-2.223,1.094l-0.209-0.023
										c-0.35,0-0.652,0.188-0.805,0.501C665.926,1111.801,675.295,1124.313,675.389,1124.43z"/>
								</g>
							</g>
							<g>
								<g>
									<path fill="#4EC2E7" d="M677.482,1127.036c-0.045,1.874,2.178,4.189,4.145,6.227c0.57,0.593,1.119,1.163,1.477,1.596
										c0.631,0.757,1.27,1.141,1.898,1.141c0.523,0,0.99-0.269,1.279-0.745c0.49-0.828,0.418-2.164-0.197-3.342
										c-1.059-2.023-5.457-10.065-5.506-10.147l-2.258-4.155c-0.01-0.012-0.021-0.023-0.021-0.034
										c-0.012-0.014-0.025-0.024-0.037-0.036l0.328,1.723v0.023c0.186,0.536,0.279,1.082,0.303,1.629v0.023l0.254,1.339
										c0.014,0.011,0.34,2.003-1.012,3.282C677.717,1125.955,677.494,1126.466,677.482,1127.036z"/>
								</g>
							</g>
						</g>
						<g>
							<g>
								<g>
									<path fill="#4EC2E7" d="M666.729,1100.908c0.967,1.303,1.875,2.525,2.131,3.097c0.047,0.093,0.08,0.187,0.129,0.266
										c0.012,0.024,0.021,0.036,0.021,0.048c0.129,0.175,0.232,0.336,0.338,0.5l0.012,0.012c0.641,0.791,1.42,0.932,1.896,0.932
										c1.293,0,2.469-0.92,2.922-1.316c0.313-0.291,0.5-0.664,0.512-1.094c0.035-1.163-1.094-2.514-3.84-5.307
										c-1.258-1.28-2.641-3.037-3.748-4.458c-1.943-2.478-2.49-3.119-3.164-3.119l-0.141,0.011
										c-1.012,0.152-1.443,0.724-1.631,1.153C661.41,1093.493,663.576,1096.648,666.729,1100.908z"/>
								</g>
							</g>
							<g>
								<g>
									<path fill="#4EC2E7" d="M678.262,1117.539v-0.023l0.037,0.06c0,0.011,0.012,0.022,0.021,0.034
										c0.314,0.396,0.514,0.641,0.523,0.652c0.422,0.453,0.861,0.545,1.152,0.545c0.713,0,1.373-0.521,1.828-1.43
										c0.279-0.559,0.488-1.27,0.523-2.014l-0.277-1.969c-0.119-0.277-0.27-0.545-0.455-0.791
										c-1.547-2.07-5.994-7.646-6.027-7.691l-0.516-0.642l-0.604,0.548c-0.467,0.407-1.455,1.07-2.107,1.07l-0.254-0.022
										c-0.361,0-0.676,0.198-0.816,0.522C670.674,1107.787,676.4,1115.188,678.262,1117.539z"/>
								</g>
							</g>
							<g>
								<g>
									<path fill="#4EC2E7" d="M680.627,1120.355c-0.025,1.664,1.943,3.503,3.678,5.133c0.512,0.477,1,0.92,1.314,1.269
										c0.547,0.618,1.129,0.921,1.711,0.921c0.559,0,1.049-0.291,1.35-0.805c0.467-0.767,0.43-1.896-0.092-2.873
										c-0.896-1.676-4.529-8.102-4.693-8.382l-2.035-3.607l0.211,1.384c0.242,0.631,0.324,1.316,0.277,1.969l0.117,0.758
										c0.012,0.057,0.209,1.615-1.129,2.757C680.881,1119.273,680.639,1119.785,680.627,1120.355z"/>
								</g>
							</g>
						</g>
						<g>
							<g>
								<path fill="#4EC2E7" d="M632.408,1085.056c0.371,0.839,1.186,1.269,2.408,1.269c1.373,0,3.211-0.535,5.168-1.094
									c2.094-0.604,4.26-1.234,5.936-1.234c1.361,0,2.967,0.35,4.654,0.723c1.781,0.385,3.621,0.791,5.309,0.791
									c2,0,3.504-0.582,4.563-1.768c3.201-3.574-0.152-10.953-0.629-11.955c-0.105-0.512-0.561-1.198-2.152-1.198
									c-0.654,0-1.479,0.116-2.398,0.303c-0.5,0.093-1.023,0.223-1.561,0.361c-3.793,0.978-8.391,2.794-9.73,3.503
									c-0.43,0.232-1.092,0.338-2.094,0.338c-0.559,0-1.152-0.024-1.77-0.059c-0.664-0.033-1.326-0.07-1.977-0.07
									c-1.316,0-2.98,0.116-4.18,1.082C631.256,1078.202,631.139,1082.205,632.408,1085.056z"/>
							</g>
						</g>
					</g>
				</g>
			</g>
			<path fill="#FAB153" d="M653.242,480.396c-8.672-0.524-22.766,16.713-26.152,23.871c-2.758,5.842-10.313,7.448-12.07,7.739
				c-2.77-2.747-6.506-2.572-8.158-2.328v7.996c0,1.501-2.629,2.805-6.714,3.317l-0.152-1.245l-0.149,1.245
				c-4.073-0.512-6.716-1.816-6.716-3.317v-7.996c-1.666-0.244-5.389-0.407-8.16,2.328c-1.758-0.291-9.311-1.897-12.068-7.739
				c-3.375-7.158-17.469-24.418-26.141-23.871c-8.973,0.57-32.029,16.515-32.285,34.706c-0.141,10.3,2.805,16.584,5.936,23.23
				c2.363,5.051,4.818,10.266,5.82,17.482c0.791,5.726,0.791,9.846,0.791,13.163c0.012,4.714,0.012,7.799,2.549,10.977
				c0.627,0.803,1.432,1.616,2.432,2.455c0.176,0.15,0.35,0.291,0.537,0.441c4.712,3.76,11.776,3.249,19.318,2.551
				c0.012-0.037,0.012-0.059,0.012-0.071l0.385,0.034c-0.127,0.011-0.268,0.025-0.396,0.037c-0.022,0.373-0.115,2.119,0.105,4.55
				c0.047,0.489,0.104,1,0.176,1.548c0.941,6.983,4.596,17.655,17.898,19.47c0.989,0.141,1.955,0.197,2.887,0.197
				c14.502,0,23.299-15.175,24.742-17.853c-0.428-0.022-0.86-0.045-1.301-0.082l0.011-0.116c0.442,0.048,0.884,0.082,1.339,0.116
				c0.744,0.06,1.5,0.093,2.279,0.107c0.779-0.014,1.537-0.048,2.283-0.107c0.453-0.034,0.895-0.068,1.338-0.116l0.012,0.116
				c-0.443,0.037-0.873,0.06-1.305,0.082c1.443,2.678,10.242,17.853,24.744,17.853c0.932,0,1.898-0.057,2.887-0.197
				c13.303-1.828,16.957-12.475,17.912-19.47c0.068-0.548,0.127-1.059,0.174-1.548c0.221-2.432,0.117-4.178,0.094-4.55
				c-0.129-0.011-0.268-0.025-0.396-0.037l0.396-0.034v0.071c7.541,0.698,14.605,1.209,19.32-2.551
				c0.188-0.15,0.359-0.291,0.535-0.441c1-0.839,1.805-1.641,2.432-2.444c2.537-3.178,2.551-6.262,2.551-10.988
				c0-3.316,0-7.437,0.791-13.163c1-7.216,3.455-12.442,5.818-17.482c3.131-6.646,6.086-12.93,5.936-23.23
				C685.26,496.911,662.205,480.966,653.242,480.396z M530.78,579.044h0.014c0.012,0.022,0.033,0.048,0.045,0.07
				C530.815,579.092,530.793,579.067,530.78,579.044z M549.588,563.787c-1.479,2.746-1.71,6.017-1.908,8.658
				c-0.245,3.458-0.488,4.98-1.77,5.051c-0.5,0-3.025-1.512-4.48-31.331l-0.023-0.687c-0.069-1.421,0.245-2.468,0.967-3.236
				c0.977-1.024,2.758-1.524,5.423-1.524c0.642,0,1.245,0.023,1.769,0.045c0.664,0.024,1.201,0.048,1.537,0.013
				c1.163-0.117,1.954,0.244,2.491,1.14C556.083,546.095,551.987,559.318,549.588,563.787z M555.047,532.059
				c-1.583-0.337-3.225-0.698-4.957-0.698c-2.328,0-4.447,0.64-6.658,1.99c-2.455,1.513-4.318,1.583-5.656,0.104
				c-2.2-2.397-2.979-8.799-2.153-17.551c1.245-13.151,3.294-17.131,11.592-22.416c2.048-1.304,3.667-1.932,4.946-1.932
				c2.398,0,3.957,2.362,6.32,5.924c0.943,1.443,2.025,3.084,3.34,4.818c5.271,7.018,11.416,14.176,13.361,16.399
				c-1.176,0.908-2.012,2.584-2.957,4.458c-1.641,3.259-3.678,7.31-8.205,8.903c-1.338,0.466-2.664,0.698-4.051,0.698
				C558.249,532.757,556.619,532.409,555.047,532.059z M585.983,590.706c-2.281,3.248-8.449,10.952-12.383,11.197
				c-10.207,0.663-12.769-13.116-13.303-17.156c2.99-0.116,5.924-0.011,8.658,0.56c4.342,0.907,8.264,2.316,12.07,3.678
				C582.69,589.578,584.331,590.171,585.983,590.706c0.07-0.08,0.116-0.162,0.174-0.244l0.838,0.571
				C586.659,590.928,586.319,590.824,585.983,590.706z M589.311,574.889l-15.223-4.097c-11.639-3.143-11.895-9.684-12.127-15.456
				c-0.082-1.897-0.152-3.701-0.641-5.225c-0.57-1.805,0.222-5.937,11.836-13.653c0.279,5.424,2.34,9.206,5.844,10.695
				C590.557,552.089,589.672,570.618,589.311,574.889z M599.995,560.016c-1.455-9.381-5.504-19.681-15.861-23.521
				c-2.375-0.873-3.574-2.246-3.295-3.771c0.244-1.408,1.688-2.561,3.189-2.561c0.453,0,0.896,0.104,1.314,0.304
				c5.436,2.525,9.287,3.048,11.557,3.048c1.63,0,2.643-0.256,3.096-0.407c0.455,0.151,1.466,0.407,3.097,0.407
				c2.27,0,6.121-0.523,11.568-3.048c0.42-0.199,0.85-0.304,1.305-0.304c1.512,0,2.943,1.153,3.188,2.561
				c0.281,1.525-0.92,2.898-3.293,3.771C605.512,540.334,601.449,550.634,599.995,560.016z M621.004,547.154
				c3.492-1.489,5.551-5.271,5.842-10.695c11.604,7.705,12.406,11.848,11.824,13.653c-0.488,1.524-0.559,3.328-0.641,5.225
				c-0.232,5.772-0.488,12.313-12.127,15.456l-15.223,4.097C610.318,570.618,609.434,552.089,621.004,547.154z M626.393,601.903
				c-3.922-0.245-10.104-7.949-12.373-11.197c-0.338,0.104-0.674,0.222-1.012,0.327l0.838-0.571
				c0.059,0.082,0.104,0.164,0.174,0.244c1.652-0.546,3.295-1.128,4.947-1.721c3.805-1.361,7.74-2.771,12.068-3.678
				c2.734-0.571,5.67-0.675,8.658-0.56C639.16,588.787,636.576,602.578,626.393,601.903z M658.561,546.177
				c-1.42,29.063-3.781,31.32-4.48,31.32c-1.279-0.071-1.525-1.594-1.768-5.051c-0.201-2.641-0.432-5.913-1.91-8.658
				c-2.398-4.469-6.494-17.692-4.004-21.87c0.477-0.792,1.152-1.153,2.105-1.153c0.131,0,0.258,0,0.385,0.013
				c0.35,0.035,0.873,0.011,1.537-0.013c0.523-0.022,1.129-0.045,1.768-0.045c2.666,0,4.447,0.5,5.424,1.524
				c0.723,0.768,1.049,1.815,0.979,3.236L658.561,546.177z M656.311,534.002c-7.914-4.85-12.43,1.587-20.439-1.22
				c-8.008-2.81-8.561-12.564-12.096-13.893c0,0,7.557-8.566,13.938-17.051c6.381-8.483,7.205-14.359,15.629-8.999
				c8.424,5.361,10.672,9.458,11.947,22.987C666.564,529.357,664.223,538.853,656.311,534.002z"/>
			<g>
				<path fill="#FAB153" d="M551.963,589.951c-0.221-2.432-0.128-4.178-0.105-4.55c-7.542,0.698-14.606,1.209-19.318-2.551
					c-0.188-0.15-0.361-0.291-0.537-0.441c-1-0.839-1.805-1.652-2.432-2.455l-0.012,0.011c0.43,0.744,2.561,7.611,1.197,9.509
					c-0.568,0.802-1.395,1.478-2.188,2.119c-0.523,0.43-1.069,0.873-1.502,1.362c-0.336,0.384-0.615,0.791-0.732,1.232
					c-0.162,0.525-0.104,1.107,0.281,1.734c0.209,0.35,0.533,1.187,0.906,2.153c0.967,2.539,2.328,6.054,4.307,8.183
					c0.361,0.408,0.756,0.758,1.176,1.035c0.279,0.211,0.57,0.373,0.871,0.502c0.525,0.221,1.061,0.336,1.596,0.336
					c0.547,0,1.094-0.115,1.652-0.35c3.736-1.548,4.189-4.689,4.586-7.472c0.234-1.641,0.455-3.201,1.305-4.317
					c1.932-2.548,7.319-4.051,9.125-4.492C552.067,590.951,552.01,590.44,551.963,589.951z M542.198,596.841l-0.594,0.221
					l-0.373-0.582l0.619-0.373l-0.641-0.07h-0.023c0-0.139-0.094-0.709-0.141-0.941l-0.035-0.223
					c-0.08-0.534-0.254-1.139-0.499-1.839c-0.593-1.675-2.2-4.26-3.563-4.563l0.34-1.5c2.408,0.534,4.224,4.282,4.678,5.551
					c0.232,0.652,0.396,1.246,0.512,1.78c0.023,0.107,0.035,0.223,0.059,0.328l0.023,0.209
					C542.768,596.048,542.862,596.596,542.198,596.841z"/>
			</g>
			<g>
				<path fill="#FAB153" d="M673.668,594.186c-0.129-0.441-0.395-0.848-0.734-1.232c-0.441-0.489-0.988-0.932-1.512-1.362
					c-0.793-0.641-1.617-1.316-2.188-2.119c-1.363-1.898,0.779-8.765,1.197-9.509h-0.012c-0.627,0.803-1.432,1.605-2.432,2.444
					c-0.176,0.15-0.348,0.291-0.535,0.441c-4.715,3.76-11.779,3.249-19.32,2.551c0.023,0.373,0.127,2.119-0.094,4.55
					c-0.047,0.489-0.105,1-0.174,1.548c1.814,0.441,7.193,1.955,9.113,4.492c0.848,1.116,1.07,2.676,1.314,4.317
					c0.396,2.782,0.838,5.924,4.572,7.472c0.561,0.234,1.107,0.35,1.654,0.35c0.535,0,1.07-0.115,1.596-0.336
					c0.303-0.129,0.592-0.291,0.873-0.502c0.418-0.266,0.813-0.627,1.186-1.035c1.967-2.129,3.328-5.644,4.295-8.183
					c0.383-0.966,0.699-1.803,0.92-2.153C673.762,595.282,673.818,594.711,673.668,594.186z M659.479,593.034
					c-0.242,0.7-0.406,1.305-0.5,1.839l-0.033,0.223c-0.035,0.232-0.141,0.802-0.141,0.941h-0.721l-0.012,0.036l0.686,0.407
					l-0.965,0.361c-0.664-0.245-0.57-0.793-0.361-2.002l0.035-0.209c0.012-0.104,0.035-0.209,0.057-0.313
					c0.105-0.548,0.281-1.13,0.516-1.794c0.439-1.269,2.268-5.017,4.666-5.551l0.336,1.5
					C661.68,588.773,660.074,591.358,659.479,593.034z"/>
			</g>
			<g>
				<g>
					<g>
						<g>
							<g>
								<g>
									<path fill="#F97E52" d="M499.079,288.824c-0.094-1.338-0.094-2.805-0.061-4.306c-0.279-2.014-0.918-3.922-1.907-5.738
										c-4.899-8.997-16.747-12.313-17.249-12.442l-0.174-0.046l-0.187,0.035c-5.983,1.304-5.378,20.915-2.282,38.571
										c5.68,32.459,2.828,78.514-0.978,87.382c-0.731,1.723-1.884,2.677-3.224,3.771c-2.223,1.827-4.992,4.108-6.656,10.847
										c-0.781,3.143-0.105,6.192,1.943,8.799c3.398,4.353,10.463,7.274,17.574,7.274c1.49,0,2.934-0.139,4.271-0.407
										c7.414-1.467,7.494-2.969,6.668-9.079c-0.359-2.712-0.861-6.436-0.791-11.708c0.141-10.475-1.221-30.155-2.328-45.973
										c-0.639-9.334-1.199-17.399-1.361-22.055c-0.419-12.5,2.617-30.4,5.797-40.491
										C498.612,291.746,498.926,290.267,499.079,288.824z M488.37,418.956c-1.326,0-2.176-1.385-3.515-3.585
										c-0.931-1.524-2.2-3.608-4.167-6.25c-1.652-2.234-3.316-3.398-4.76-3.34c-1.723,0.07-2.771,1.699-2.783,1.711l-1.291-0.826
										c0.059-0.093,1.502-2.328,4.016-2.421c2.049-0.07,4.062,1.257,6.064,3.957c1.99,2.701,3.293,4.819,4.236,6.378
										c1.629,2.654,1.932,2.992,2.549,2.747l0.559,1.443C488.94,418.897,488.649,418.956,488.37,418.956z"/>
								</g>
							</g>
						</g>
						<g>
							<g>
								<path fill="#F97E52" d="M489.278,418.769c-0.338,0.128-0.629,0.187-0.908,0.187c-1.326,0-2.176-1.385-3.515-3.585
									c-0.931-1.524-2.2-3.608-4.167-6.25c-1.652-2.234-3.316-3.398-4.76-3.34c-1.723,0.07-2.771,1.699-2.783,1.711l-1.291-0.826
									c0.059-0.093,1.502-2.328,4.016-2.421c2.049-0.07,4.062,1.257,6.064,3.957c1.99,2.701,3.293,4.819,4.236,6.378
									c1.629,2.654,1.932,2.992,2.549,2.747L489.278,418.769z"/>
							</g>
						</g>
						<g>
							<g>
								<path fill="#F97E52" d="M484.772,463.415c-3.827,6.89-7.156,28.678-10.381,49.732c-1,6.53-2.037,13.28-3.06,19.46
									c-3.48,20.844-12.198,58.087-17.226,58.087c-0.094,0-0.197-0.011-0.291-0.034c-2.002-0.432-3.957-2.257-5.004-4.678
									c-0.035-0.082-0.07-0.164-0.107-0.245c-0.708-1.746-1.477-5.133,0.713-9.054v-0.011c0.186-0.328,0.384-0.652,0.604-0.978
									c7.751-11.5,19.506-83.101,20.554-94.6c0.85-9.345,2.746-30.272-0.406-36.533c-0.258-0.512-0.56-0.932-0.887-1.234
									c-0.116-0.104-0.221-0.209-0.314-0.326c-1.768-1.978-2.34-5.924-2.373-10.044c-0.059-4.097,0.43-8.356,0.791-10.998
									c0.023-0.116,0.033-0.21,0.047-0.256c0.012-0.023,0.012-0.046,0.012-0.046c0.139-1.06,0.267-1.804,0.326-2.142l0.338-1.909
									l1.07,1.618c2.512,3.817,8.543,5.761,17.911,5.761c2.294,0,4.364-0.116,5.878-0.198c0.908-0.046,1.642-0.093,2.118-0.093
									c0.407,0,0.769,0.221,0.989,0.594C498.006,428.569,489.186,455.465,484.772,463.415z"/>
							</g>
						</g>
						<g>
							<g>
								<path fill="#F97E52" d="M470.168,444.561c-1.152,4.9-4.773,20.344-8.742,38.546c-4.225,19.333-11.58,73.615-11.906,88
									c-0.059,2.189-0.08,4.028-0.104,5.565v0.011c-2.189,3.921-1.421,7.308-0.713,9.054c0.037,0.082,0.072,0.164,0.107,0.245
									c-0.129,0.232-0.268,0.489-0.454,0.792c-0.617,1-1.583,1.361-2.606,1.361c-1.27,0-2.643-0.548-3.552-1.071l-0.384-0.22
									V586.4c-0.186-19.32,11.268-93.819,14.164-109.403c2.842-15.305,10.604-51.361,11.406-55.039
									c-0.361,2.642-0.85,6.901-0.791,10.998c0.033,4.12,0.605,8.066,2.373,10.044c0.094,0.117,0.198,0.222,0.314,0.326
									C469.609,443.629,469.911,444.048,470.168,444.561z"/>
							</g>
						</g>
					</g>
					<g>
						<g>
							<g>
								<path fill="#F97E52" d="M559.284,250.371c-0.069-0.163-0.304-0.722-1.232-0.605c-0.211,0.023-12.455,1.408-24.268,2.606
									c-0.012,0-0.012,0-0.012,0c-1.105-0.593-6.68-3.63-10.742-6.959c-4.691-3.864-17.457-2.84-22.266-2.456l-0.535,0.046
									c-4.119,0.326-10.23,6.355-11.359,7.507h-0.012c-3.492,0.768-7.355,2.269-8.309,5.493c-1.373,4.644-1.514,7.483,1.688,9.264
									c0.641,0.373,1.805,0.873,3.281,1.524c4.398,1.92,12.594,5.517,13.279,8.38c0.396,1.629,0.326,4.399,0.256,7.332
									c-0.012,0.675-0.035,1.35-0.035,2.014c0.188,1.385,0.209,2.828,0.061,4.306c0.127,2.014,0.453,3.748,1.162,4.854
									c0.49,0.733,1.221,1.501,2.072,2.374c3.246,3.375,8.695,9.008,9.881,23.568c1.176,14.606,4.131,40.025,10.627,46.1
									c0.977,0.92,1.559,1.269,2.105,1.269c0.338,0,0.629-0.14,0.838-0.396c0.561-0.687,0.314-1.909-0.443-5.342
									c-1.092-4.923-2.92-13.152-1.221-20.915c1.385-6.354,3.469-10.416,5.145-13.675c0.105-0.198,0.198-0.384,0.291-0.57v-0.012
									c0.08-2.374,0.535-3.829,0.582-3.945l0.244,0.081c0.338-1.315,0.99-2.479,1.758-3.503c0.104-1.373-0.023-2.851-0.49-4.562
									c-0.451-1.699-1.127-3.724-1.838-5.854c-2.944-8.822-6.971-20.891-1.828-27.467c3.645-4.644,7.287-6.96,10.5-8.997
									c2.664-1.711,4.98-3.177,6.773-5.599c0.906-1.222,2.328-2.758,3.932-4.364c0-0.011,0.012-0.023,0.024-0.035
									c2.502-4.236,6.228-7.1,8.636-8.636C559.214,251.674,559.528,250.963,559.284,250.371z M513.276,254.129h-0.35
									c-4.234,0-8.949-1.571-12.732-2.828c-0.744-0.245-1.443-0.489-2.094-0.687c5.679-0.769,17.189-1.78,19.936-0.512
									c2.201,1.013,4.016,2.351,5.145,3.305C518.747,253.815,515.116,254.095,513.276,254.129z"/>
							</g>
						</g>
					</g>
					<g>
						<g>
							<g>
								<path fill="#F97E52" d="M412.114,623.98l-0.162,0.291c-1.398,2.619-8.602,15.645-12.734,15.645
									c-0.627,0-1.5-0.258-2.082-1.504l-0.175-0.359l0.198-0.338c6.691-11.906,10.823-17.947,12.303-17.947
									c0.336,0,0.639,0.164,0.824,0.443c1.13,1.699,1.7,3.387,1.723,3.455L412.114,623.98z"/>
							</g>
						</g>
						<g>
							<g>
								<path fill="#F97E52" d="M420.727,660.525l-0.047,0.328c-0.651,4.503-3.072,19.203-7.32,19.203
									c-0.605,0-1.199-0.279-1.758-0.827l-0.279-0.279l0.07-0.396c3.432-21.137,5.051-21.137,5.737-21.137
									c0.198,0,0.407,0.07,0.581,0.199c1.643,1.199,2.758,2.596,2.807,2.654L420.727,660.525z"/>
							</g>
						</g>
						<g>
							<g>
								<path fill="#F97E52" d="M427.325,609.969c-1.606,1-9.463,9.276-12.348,12.385l-0.605,0.639l-4.119-5.041l0.477-0.5
									c0.547-0.559,13.43-13.861,15.77-15.398c0.35-0.231,0.688-0.348,1.024-0.348c0.349,0,1.21,0.15,1.595,1.489
									C429.665,605.093,429.071,608.875,427.325,609.969z"/>
							</g>
						</g>
						<g>
							<g>
								<path fill="#F97E52" d="M456.62,611.633c-0.988,1.932-2.584,3.316-4.667,4.063l-2.315-0.21l-0.035,0.757
									c-0.383,0.057-0.779,0.082-1.188,0.082c-1.77,0-3.631-0.443-5.471-1.152c-1.932-0.734-3.828-1.782-5.527-2.921
									c-2.234-1.491-4.145-3.167-5.365-4.576c-1.281-1.478-1.35-2.164-1.293-2.56c0.059-0.443-0.221-1.396-0.465-2.246
									c-0.582-2.037-1.397-4.819,0.953-5.692c1.374-0.511,4.471-3.421,6.531-5.353c2.455-2.305,2.885-2.678,3.409-2.678h0.268
									l0.245,0.175c1.443,1.164,5.68,1.629,8.484,1.932c2.734,0.303,3.467,0.384,3.736,1.025c0.092,0.22,0.209,0.687,0.465,1.792
									c0.523,2.211,1.488,6.319,2.49,8.322C457.795,604.22,458.319,608.281,456.62,611.633z"/>
							</g>
						</g>
						<g>
							<g>
								<path fill="#F97E52" d="M435.192,611.854l-0.127,0.488c-0.035,0.164-4.342,17.088-4.841,19.345
									c-0.257,1.152-1.048,1.815-2.179,1.815c-1.221,0-2.619-0.756-3.559-1.315c-1.654-0.989-0.699-3.189,1.033-7.169
									c0.291-0.688,0.619-1.42,0.943-2.224c1.98-4.69,3.201-13.743,3.213-13.837l0.176-1.339L435.192,611.854z"/>
							</g>
						</g>
						<g>
							<g>
								<path fill="#F97E52" d="M427.792,638.263c-0.35,0.884-1.025,3.491-1.734,6.237c-1.152,4.469-2.352,9.079-3.154,10.534
									c-0.605,1.07-1.561,1.698-2.572,1.698c-0.698,0-1.35-0.314-1.793-0.873c-0.582-0.732-0.743-1.791-0.453-3.003
									c0.721-3.037,4.91-18.808,4.959-18.97l0.22-0.816l0.791,0.291c0.292,0.116,2.921,1.152,3.7,2.933
									C428.045,636.936,428.059,637.621,427.792,638.263z"/>
							</g>
						</g>
						<g>
							<g>
								<path fill="#F97E52" d="M439.639,661.436l-0.012,0.324c-0.186,4.119-1.107,17.541-5.051,17.541
									c-0.501,0-1.002-0.21-1.502-0.605l-0.303-0.257l0.022-0.396c1.257-19.088,2.667-19.088,3.423-19.088h0.209l0.281,0.141
									c1.559,0.919,2.652,2.049,2.699,2.094L439.639,661.436z"/>
							</g>
						</g>
						<g>
							<g>
								<path fill="#F97E52" d="M448.252,617.302l-0.117,0.755c-0.023,0.152-2.363,15.328-2.607,17.354
									c-0.15,1.188-0.92,1.875-2.117,1.875c-1.037,0-2.212-0.514-3.003-0.885c-1.596-0.756-0.944-2.793,0.255-6.482
									c0.199-0.63,0.42-1.293,0.641-2.014c1.35-4.32,2.234-10.498,2.246-10.557l0.117-0.769L448.252,617.302z"/>
							</g>
						</g>
						<g>
							<g>
								<path fill="#F97E52" d="M443.958,641.393c-0.232,0.803-0.605,3.142-1.002,5.61c-0.639,4.015-1.291,8.159-1.885,9.509
									c-0.477,1.094-1.387,1.769-2.387,1.769c-0.604,0-1.175-0.257-1.582-0.731c-0.535-0.619-0.745-1.537-0.605-2.586
									c0.384-2.723,2.713-16.898,2.736-17.039l0.139-0.85l0.826,0.234c0.268,0.07,2.688,0.768,3.549,2.293
									C444.061,640.158,444.131,640.777,443.958,641.393z"/>
							</g>
						</g>
						<g>
							<g>
								<path fill="#F97E52" d="M448.811,665.322c-0.408,0.43-0.838,0.512-1.129,0.512c-0.385,0-0.77-0.152-1.141-0.443
									l-0.293-0.221l-0.01-0.361c-0.258-9.297-0.012-14.396,0.732-15.164l0.223-0.232l0.43-0.047c0.152,0,0.301,0.047,0.432,0.115
									c1.174,0.652,2.023,1.503,2.059,1.537l0.221,0.209l0.012,0.305C450.428,653.475,450.765,663.274,448.811,665.322z"/>
							</g>
						</g>
						<g>
							<g>
								<path fill="#F97E52" d="M453.336,615.822l-0.033,0.734c-0.012,0.127-0.605,12.242-0.641,13.85
									c-0.023,1.094-0.71,1.78-1.77,1.78c-0.734,0-1.536-0.313-2.07-0.548c-1.281-0.557-0.955-2.246-0.373-5.283
									c0.105-0.5,0.209-1.037,0.314-1.618c0.64-3.466,0.838-8.39,0.838-8.449v-0.046c0.139-0.012,0.279-0.025,0.419-0.047
									c0.687-0.105,1.325-0.28,1.932-0.5L453.336,615.822z"/>
							</g>
						</g>
						<g>
							<g>
								<path fill="#F97E52" d="M451.975,635.223c-0.115,0.642-0.209,2.504-0.313,4.47c-0.209,3.819-0.373,6.612-0.676,7.636
									c-0.291,1.025-1.037,1.689-1.886,1.689c-0.442,0-0.862-0.188-1.188-0.525c-0.325-0.337-0.698-0.978-0.664-2.119
									c0.082-2.164,0.724-13.139,0.757-13.605l0.049-0.895l0.883,0.197C450.208,632.35,452.29,633.328,451.975,635.223z"/>
							</g>
						</g>
						<g>
							<g>
								<path fill="#F97E52" d="M428.489,666.729l-0.045,0.313c-0.641,4.762-3.072,20.311-7.311,20.311
									c-0.629,0-1.223-0.291-1.779-0.873l-0.258-0.279l0.059-0.373c3.434-22.367,5.051-22.367,5.738-22.367
									c0.209,0,0.418,0.068,0.594,0.209c1.652,1.279,2.758,2.746,2.805,2.805L428.489,666.729z"/>
							</g>
						</g>
						<g>
							<g>
								<path fill="#F97E52" d="M442.944,615.172l-0.104,0.441c-0.047,0.175-4.342,18.109-4.854,20.508
									c-0.246,1.209-1.048,1.896-2.178,1.896c-1.221,0-2.631-0.803-3.572-1.408c-1.617-1.024-0.676-3.33,1.047-7.52
									c0.291-0.721,0.605-1.5,0.943-2.338c1.827-4.598,3.002-13.128,3.189-14.501C439.116,613.39,441.012,614.438,442.944,615.172
									z"/>
							</g>
						</g>
						<g>
							<g>
								<path fill="#F97E52" d="M435.566,643.08c-0.351,0.943-1.024,3.702-1.735,6.623c-1.163,4.725-2.35,9.613-3.152,11.139
									c-0.596,1.127-1.561,1.803-2.584,1.803c-0.676,0-1.316-0.313-1.746-0.861c-0.617-0.769-0.791-1.896-0.5-3.178
									c0.732-3.224,4.91-19.947,4.957-20.111l0.209-0.861l0.814,0.339C433.657,638.703,436.497,640.602,435.566,643.08z"/>
							</g>
						</g>
					</g>
					<g>
						<g>
							<g>
								<g>
									<path fill="#F97E52" d="M701.863,293.259c3.176,10.09,6.213,27.991,5.795,40.491c-0.164,4.655-0.721,12.721-1.361,22.055
										c-1.104,15.817-2.467,35.498-2.328,45.973c0.07,5.272-0.428,8.997-0.791,11.708c-0.826,6.11-0.744,7.612,6.67,9.079
										c1.336,0.268,2.781,0.407,4.271,0.407c7.111,0,14.176-2.921,17.574-7.274c2.049-2.607,2.723-5.656,1.943-8.799
										c-1.664-6.738-4.436-9.02-6.658-10.847c-1.336-1.094-2.488-2.048-3.223-3.771c-3.807-8.869-6.658-54.923-0.979-87.382
										c3.096-17.656,3.701-37.267-2.281-38.571l-0.186-0.035l-0.174,0.046c-0.5,0.129-12.35,3.446-17.248,12.442
										c-0.99,1.815-1.631,3.724-1.91,5.738c0.035,1.501,0.035,2.968-0.057,4.306
										C701.072,290.267,701.385,291.746,701.863,293.259z M710.721,418.769l0.557-1.443c0.619,0.245,0.922-0.093,2.551-2.747
										c0.941-1.559,2.246-3.677,4.234-6.378c2.004-2.7,4.018-4.027,6.066-3.957c2.514,0.093,3.957,2.328,4.014,2.421
										l-1.291,0.826c-0.012-0.012-1.061-1.642-2.783-1.711c-1.443-0.058-3.107,1.106-4.76,3.34
										c-1.967,2.642-3.234,4.726-4.166,6.25c-1.34,2.2-2.188,3.585-3.514,3.585C711.348,418.956,711.057,418.897,710.721,418.769
										z"/>
								</g>
							</g>
						</g>
						<g>
							<g>
								<path fill="#F97E52" d="M710.721,418.769c0.336,0.128,0.627,0.187,0.908,0.187c1.326,0,2.174-1.385,3.514-3.585
									c0.932-1.524,2.199-3.608,4.166-6.25c1.652-2.234,3.316-3.398,4.76-3.34c1.723,0.07,2.771,1.699,2.783,1.711l1.291-0.826
									c-0.057-0.093-1.5-2.328-4.014-2.421c-2.049-0.07-4.063,1.257-6.066,3.957c-1.988,2.701-3.293,4.819-4.234,6.378
									c-1.629,2.654-1.932,2.992-2.551,2.747L710.721,418.769z"/>
							</g>
						</g>
						<g>
							<g>
								<path fill="#F97E52" d="M715.225,463.415c3.83,6.89,7.158,28.678,10.381,49.732c1,6.53,2.037,13.28,3.063,19.46
									c3.479,20.844,12.195,58.087,17.223,58.087c0.094,0,0.199-0.011,0.291-0.034c2.004-0.432,3.959-2.257,5.006-4.678
									c0.035-0.082,0.07-0.164,0.105-0.245c0.709-1.746,1.477-5.133-0.709-9.054v-0.011c-0.188-0.328-0.385-0.652-0.607-0.978
									c-7.75-11.5-19.506-83.101-20.551-94.6c-0.852-9.345-2.75-30.272,0.406-36.533c0.254-0.512,0.557-0.932,0.883-1.234
									c0.117-0.104,0.221-0.209,0.314-0.326c1.768-1.978,2.338-5.924,2.375-10.044c0.057-4.097-0.432-8.356-0.793-10.998
									c-0.023-0.116-0.033-0.21-0.045-0.256c-0.012-0.023-0.012-0.046-0.012-0.046c-0.141-1.06-0.268-1.804-0.328-2.142
									l-0.336-1.909l-1.07,1.618c-2.514,3.817-8.543,5.761-17.912,5.761c-2.291,0-4.365-0.116-5.877-0.198
									c-0.908-0.046-1.641-0.093-2.119-0.093c-0.406,0-0.768,0.221-0.988,0.594C701.992,428.569,710.814,455.465,715.225,463.415z
									"/>
							</g>
						</g>
						<g>
							<g>
								<path fill="#F97E52" d="M729.832,444.561c1.152,4.9,4.77,20.344,8.74,38.546c4.223,19.333,11.578,73.615,11.906,88
									c0.057,2.189,0.08,4.028,0.105,5.565v0.011c2.186,3.921,1.418,7.308,0.709,9.054c-0.035,0.082-0.07,0.164-0.105,0.245
									c0.127,0.232,0.27,0.489,0.455,0.792c0.615,1,1.582,1.361,2.605,1.361c1.27,0,2.643-0.548,3.551-1.071l0.383-0.22V586.4
									c0.188-19.32-11.266-93.819-14.164-109.403c-2.838-15.305-10.602-51.361-11.406-55.039c0.361,2.642,0.85,6.901,0.793,10.998
									c-0.037,4.12-0.607,8.066-2.375,10.044c-0.094,0.117-0.197,0.222-0.314,0.326
									C730.389,443.629,730.086,444.048,729.832,444.561z"/>
							</g>
						</g>
					</g>
					<g>
						<g>
							<g>
								<path fill="#F97E52" d="M787.883,623.98l0.164,0.291c1.396,2.619,8.602,15.645,12.732,15.645
									c0.629,0,1.502-0.258,2.084-1.504l0.176-0.359l-0.201-0.338c-6.691-11.906-10.822-17.947-12.299-17.947
									c-0.34,0-0.641,0.164-0.828,0.443c-1.129,1.699-1.697,3.387-1.723,3.455L787.883,623.98z"/>
							</g>
						</g>
						<g>
							<g>
								<path fill="#F97E52" d="M779.27,660.525l0.049,0.328c0.652,4.503,3.074,19.203,7.32,19.203c0.605,0,1.199-0.279,1.758-0.827
									l0.277-0.279l-0.068-0.396c-3.434-21.137-5.051-21.137-5.736-21.137c-0.197,0-0.41,0.07-0.582,0.199
									c-1.641,1.199-2.76,2.596-2.805,2.654L779.27,660.525z"/>
							</g>
						</g>
						<g>
							<g>
								<path fill="#F97E52" d="M772.672,609.969c1.607,1,9.463,9.276,12.35,12.385l0.605,0.639l4.119-5.041l-0.477-0.5
									c-0.547-0.559-13.432-13.861-15.771-15.398c-0.35-0.231-0.686-0.348-1.023-0.348c-0.35,0-1.211,0.15-1.596,1.489
									C770.332,605.093,770.926,608.875,772.672,609.969z"/>
							</g>
						</g>
						<g>
							<g>
								<path fill="#F97E52" d="M743.377,611.633c0.99,1.932,2.584,3.316,4.67,4.063l2.314-0.21l0.035,0.757
									c0.385,0.057,0.779,0.082,1.188,0.082c1.768,0,3.629-0.443,5.469-1.152c1.932-0.734,3.83-1.782,5.527-2.921
									c2.234-1.491,4.145-3.167,5.367-4.576c1.279-1.478,1.352-2.164,1.291-2.56c-0.059-0.443,0.221-1.396,0.467-2.246
									c0.582-2.037,1.395-4.819-0.955-5.692c-1.373-0.511-4.469-3.421-6.527-5.353c-2.459-2.305-2.889-2.678-3.41-2.678h-0.268
									l-0.246,0.175c-1.443,1.164-5.68,1.629-8.484,1.932c-2.734,0.303-3.469,0.384-3.736,1.025
									c-0.094,0.22-0.209,0.687-0.467,1.792c-0.521,2.211-1.488,6.319-2.488,8.322C742.201,604.22,741.68,608.281,743.377,611.633
									z"/>
							</g>
						</g>
						<g>
							<g>
								<path fill="#F97E52" d="M764.805,611.854l0.129,0.488c0.033,0.164,4.34,17.088,4.842,19.345
									c0.254,1.152,1.045,1.815,2.176,1.815c1.223,0,2.617-0.756,3.563-1.315c1.652-0.989,0.697-3.189-1.037-7.169
									c-0.291-0.688-0.615-1.42-0.943-2.224c-1.979-4.69-3.201-13.743-3.213-13.837l-0.174-1.339L764.805,611.854z"/>
							</g>
						</g>
						<g>
							<g>
								<path fill="#F97E52" d="M772.207,638.263c0.348,0.884,1.023,3.491,1.734,6.237c1.15,4.469,2.352,9.079,3.154,10.534
									c0.604,1.07,1.559,1.698,2.572,1.698c0.699,0,1.348-0.314,1.791-0.873c0.582-0.732,0.746-1.791,0.455-3.003
									c-0.723-3.037-4.912-18.808-4.957-18.97l-0.223-0.816l-0.791,0.291c-0.291,0.116-2.922,1.152-3.701,2.933
									C771.951,636.936,771.939,637.621,772.207,638.263z"/>
							</g>
						</g>
						<g>
							<g>
								<path fill="#F97E52" d="M760.357,661.436l0.014,0.324c0.188,4.119,1.105,17.541,5.051,17.541c0.5,0,1-0.21,1.502-0.605
									l0.301-0.257l-0.023-0.396c-1.256-19.088-2.664-19.088-3.42-19.088h-0.209l-0.279,0.141
									c-1.561,0.919-2.656,2.049-2.701,2.094L760.357,661.436z"/>
							</g>
						</g>
						<g>
							<g>
								<path fill="#F97E52" d="M751.746,617.302l0.117,0.755c0.021,0.152,2.361,15.328,2.607,17.354
									c0.15,1.188,0.918,1.875,2.117,1.875c1.035,0,2.211-0.514,3.004-0.885c1.594-0.756,0.941-2.793-0.258-6.482
									c-0.197-0.63-0.418-1.293-0.641-2.014c-1.35-4.32-2.234-10.498-2.246-10.557l-0.115-0.769L751.746,617.302z"/>
							</g>
						</g>
						<g>
							<g>
								<path fill="#F97E52" d="M756.041,641.393c0.232,0.803,0.605,3.142,1,5.61c0.641,4.015,1.293,8.159,1.887,9.509
									c0.479,1.094,1.385,1.769,2.385,1.769c0.607,0,1.176-0.257,1.584-0.731c0.535-0.619,0.744-1.537,0.605-2.586
									c-0.385-2.723-2.713-16.898-2.734-17.039l-0.141-0.85l-0.826,0.234c-0.268,0.07-2.689,0.768-3.551,2.293
									C755.938,640.158,755.865,640.777,756.041,641.393z"/>
							</g>
						</g>
						<g>
							<g>
								<path fill="#F97E52" d="M751.188,665.322c0.408,0.43,0.84,0.512,1.129,0.512c0.385,0,0.768-0.152,1.141-0.443l0.289-0.221
									l0.012-0.361c0.258-9.297,0.014-14.396-0.73-15.164l-0.221-0.232l-0.432-0.047c-0.15,0-0.303,0.047-0.43,0.115
									c-1.176,0.652-2.025,1.503-2.063,1.537l-0.221,0.209l-0.012,0.305C749.57,653.475,749.232,663.274,751.188,665.322z"/>
							</g>
						</g>
						<g>
							<g>
								<path fill="#F97E52" d="M746.66,615.822l0.035,0.734c0.012,0.127,0.605,12.242,0.641,13.85
									c0.021,1.094,0.711,1.78,1.768,1.78c0.734,0,1.537-0.313,2.072-0.548c1.281-0.557,0.955-2.246,0.373-5.283
									c-0.104-0.5-0.211-1.037-0.314-1.618c-0.641-3.466-0.838-8.39-0.838-8.449v-0.046c-0.141-0.012-0.279-0.025-0.42-0.047
									c-0.688-0.105-1.326-0.28-1.93-0.5L746.66,615.822z"/>
							</g>
						</g>
						<g>
							<g>
								<path fill="#F97E52" d="M748.021,635.223c0.115,0.642,0.209,2.504,0.316,4.47c0.209,3.819,0.369,6.612,0.672,7.636
									c0.291,1.025,1.037,1.689,1.887,1.689c0.441,0,0.861-0.188,1.188-0.525c0.326-0.337,0.697-0.978,0.662-2.119
									c-0.08-2.164-0.719-13.139-0.756-13.605l-0.045-0.895l-0.885,0.197C749.793,632.35,747.707,633.328,748.021,635.223z"/>
							</g>
						</g>
						<g>
							<g>
								<path fill="#F97E52" d="M771.508,666.729l0.047,0.313c0.643,4.762,3.074,20.311,7.309,20.311
									c0.631,0,1.223-0.291,1.783-0.873l0.254-0.279l-0.057-0.373c-3.436-22.367-5.051-22.367-5.738-22.367
									c-0.211,0-0.42,0.068-0.596,0.209c-1.652,1.279-2.756,2.746-2.805,2.805L771.508,666.729z"/>
							</g>
						</g>
						<g>
							<g>
								<path fill="#F97E52" d="M757.053,615.172l0.105,0.441c0.047,0.175,4.34,18.109,4.855,20.508
									c0.242,1.209,1.045,1.896,2.174,1.896c1.223,0,2.631-0.803,3.574-1.408c1.617-1.024,0.674-3.33-1.049-7.52
									c-0.291-0.721-0.604-1.5-0.943-2.338c-1.828-4.598-3.002-13.128-3.189-14.501
									C760.883,613.39,758.984,614.438,757.053,615.172z"/>
							</g>
						</g>
						<g>
							<g>
								<path fill="#F97E52" d="M764.432,643.08c0.35,0.943,1.025,3.702,1.734,6.623c1.164,4.725,2.352,9.613,3.154,11.139
									c0.594,1.127,1.559,1.803,2.584,1.803c0.674,0,1.314-0.313,1.748-0.861c0.615-0.769,0.791-1.896,0.498-3.178
									c-0.732-3.224-4.912-19.947-4.957-20.111l-0.211-0.861l-0.814,0.339C766.342,638.703,763.502,640.602,764.432,643.08z"/>
							</g>
						</g>
					</g>
					<g>
						<path fill="#F97E52" d="M700.922,288.824c0.092-1.338,0.092-2.805,0.057-4.306
							C700.791,285.903,700.77,287.346,700.922,288.824z"/>
						<g>
							<g>
								<path fill="#F97E52" d="M642.168,253.199c2.41,1.536,6.135,4.399,8.637,8.636c0.012,0.011,0.023,0.023,0.023,0.035
									c1.605,1.606,3.025,3.143,3.934,4.364c1.791,2.421,4.109,3.887,6.775,5.599c3.211,2.037,6.854,4.353,10.496,8.997
									c5.145,6.576,1.117,18.645-1.826,27.467c-0.709,2.13-1.385,4.155-1.84,5.854c-0.467,1.711-0.594,3.189-0.488,4.562
									c0.768,1.024,1.42,2.188,1.758,3.503l0.244-0.081c0.045,0.116,0.5,1.571,0.582,3.945v0.012
									c0.094,0.186,0.188,0.372,0.291,0.57c1.676,3.259,3.758,7.321,5.145,13.675c1.697,7.763-0.129,15.992-1.223,20.915
									c-0.758,3.433-1,4.655-0.443,5.342c0.211,0.256,0.502,0.396,0.838,0.396c0.549,0,1.131-0.349,2.107-1.269
									c6.494-6.075,9.449-31.494,10.625-46.1c1.189-14.56,6.635-20.193,9.881-23.568c0.852-0.873,1.586-1.641,2.074-2.374
									c0.709-1.106,1.033-2.84,1.164-4.854c-0.152-1.478-0.131-2.921,0.057-4.306c0-0.664-0.023-1.338-0.035-2.014
									c-0.07-2.933-0.141-5.703,0.258-7.332c0.686-2.863,8.879-6.46,13.277-8.38c1.48-0.652,2.645-1.152,3.283-1.524
									c3.199-1.781,3.061-4.62,1.688-9.264c-0.955-3.224-4.818-4.726-8.311-5.493h-0.012c-1.129-1.152-7.238-7.181-11.357-7.507
									l-0.537-0.046c-4.807-0.384-17.574-1.408-22.264,2.456c-4.063,3.329-9.639,6.367-10.742,6.959c0,0,0,0-0.012,0
									c-11.814-1.198-24.059-2.583-24.268-2.606c-0.932-0.116-1.162,0.442-1.234,0.605
									C640.469,250.963,640.785,251.674,642.168,253.199z M676.816,253.408c1.129-0.954,2.943-2.292,5.145-3.305
									c2.746-1.268,14.258-0.256,19.938,0.512c-0.652,0.198-1.35,0.442-2.096,0.687c-3.783,1.257-8.494,2.828-12.732,2.828h-0.35
									C684.881,254.095,681.252,253.815,676.816,253.408z"/>
							</g>
						</g>
					</g>
				</g>
			</g>
		</g>
		<path fill="#FFD5A4" d="M644.803,106.075c-0.023,1.944-0.068,3.888-0.162,5.808c-0.023,0.629-0.047,1.257-0.08,1.886
			c-0.037,0.85-0.082,1.688-0.143,2.525c-0.033,0.582-0.068,1.164-0.115,1.734c-0.059,0.873-0.115,1.723-0.197,2.572
			c-0.07,0.837-0.141,1.676-0.221,2.502c-0.012,0.081-0.012,0.163-0.023,0.244v0.012c-0.117,1.21-0.256,2.398-0.396,3.549
			c-0.082,0.722-0.174,1.42-0.268,2.107c-0.012,0.07-0.023,0.151-0.035,0.221c-0.105,0.756-0.209,1.501-0.326,2.234
			c-0.059,0.361-0.115,0.722-0.174,1.07c-0.373,2.27-0.791,4.341-1.246,6.169c-0.068,0.314-0.15,0.617-0.23,0.908
			c-0.258,0.978-0.525,1.875-0.803,2.677c-4.855,14.048-16.133,42.236-27.619,43.516c-3.107,0.35-5.484,0.512-7.264,0.559
			c-0.338,0-0.641,0.012-0.93,0.012c-3.982,0.023-4.576-0.571-4.576-0.571s-0.593,0.594-4.563,0.571c-0.174,0-0.348,0-0.533-0.012
			c-1.84-0.023-4.32-0.186-7.67-0.559c-11.488-1.28-22.766-29.468-27.607-43.516c-0.105-0.303-0.209-0.605-0.303-0.932
			c-0.094-0.279-0.176-0.559-0.268-0.861c-0.338-1.187-0.652-2.502-0.955-3.934c-0.116-0.512-0.221-1.047-0.325-1.594
			c-0.536-2.805-1.013-5.982-1.397-9.393c-0.058-0.523-0.117-1.059-0.174-1.606c-0.094-0.838-0.174-1.699-0.245-2.572
			c-0.022-0.244-0.046-0.478-0.058-0.722c-0.023-0.116-0.023-0.232-0.035-0.349c-0.045-0.524-0.082-1.06-0.116-1.595
			c-0.047-0.523-0.081-1.06-0.116-1.606c-0.117-1.618-0.197-3.247-0.268-4.899c-0.047-1.094-0.082-2.2-0.115-3.306v-0.012
			c0-0.104-0.012-0.209,0-0.325c-0.025-0.827-0.049-1.653-0.061-2.491c0.291-0.279,0.723-0.85,1.375-1.909h-0.256
			c0.045-0.069,0.813-1.815,2.432-3.957c1.269-2.491,2.91-5.947,5.029-10.719c4.76-10.777,4.863-25.709,5.387-29.224v-0.036
			c0.059-0.349,0.117-0.582,0.186-0.675c0.012-0.012,0.024-0.023,0.035-0.023C580.268,52.223,595.142,50,595.142,50h9.706
			c0,0,14.875,2.223,25.781,9.555c0.01,0,0.021,0.012,0.035,0.023c0.068,0.093,0.127,0.326,0.184,0.675v0.036
			c0.537,3.515,0.643,18.447,5.402,29.224c2.119,4.772,3.76,8.229,5.027,10.719l0.232,0.326l0.186,0.244
			c0.303,0.431,0.57,0.827,0.805,1.199c0.023,0.047,0.045,0.081,0.068,0.116c0.094,0.163,0.186,0.314,0.268,0.454
			s0.164,0.279,0.232,0.407c0.152,0.256,0.268,0.488,0.361,0.664c0.012,0.011,0.012,0.023,0.012,0.034
			c0.012,0.035,0.035,0.058,0.049,0.082c0.021,0.046,0.045,0.093,0.057,0.128l0.012,0.011c0.068,0.128,0.105,0.209,0.129,0.256
			c0,0,0.012,0,0.012,0.011c0,0.012,0.012,0.023,0.012,0.023h-0.258C644.082,105.225,644.523,105.795,644.803,106.075z"/>
		<path fill="#42CB6F" d="M555.241,108.59c1.142-3.912,3.561-7.258,7.258-9.122c4.822-2.43,10.41-2.281,15.665-2.09
			c3.339,0.121,6.792,0.361,9.915,1.644c2.928,1.203,5.73,3.047,8.889,3.604c2.918,0.515,6.058-0.344,8.816-1.254
			c3.066-1.012,6.029-2.301,9.063-3.403c2.844-1.033,5.797-1.968,8.836-2.173c2.273-0.153,4.574,0.05,6.809,0.482
			c3.861,0.747,7.68,2.164,11.025,4.283c-0.08-0.11-0.154-0.216-0.238-0.329c-1.268-2.491-2.908-5.947-5.027-10.719
			c-4.76-10.777-4.865-25.709-5.402-29.224v-0.036c-0.057-0.349-0.115-0.582-0.184-0.675c-0.014-0.012-0.025-0.023-0.035-0.023
			C619.723,52.223,604.848,50,604.848,50h-9.706c0,0-14.874,2.223-25.769,9.555c-0.011,0-0.023,0.012-0.035,0.023
			c-0.068,0.093-0.127,0.326-0.186,0.675v0.036c-0.523,3.515-0.627,18.447-5.387,29.224c-2.119,4.772-3.761,8.229-5.029,10.719
			c-1.619,2.141-2.387,3.887-2.432,3.957h0.256c-0.652,1.06-1.084,1.63-1.375,1.909C555.198,106.931,555.219,107.76,555.241,108.59z
			"/>
		<path fill="#42CB6F" d="M643.861,123.358c-0.117,1.21-0.256,2.398-0.396,3.549c-0.082,0.722-0.174,1.42-0.268,2.107
			c-0.012,0.07-0.023,0.151-0.035,0.221c-0.105,0.756-0.209,1.501-0.326,2.234c-0.059,0.361-0.115,0.722-0.174,1.07
			c-0.373,2.27-0.791,4.341-1.246,6.169c-0.068,0.314-0.15,0.617-0.23,0.908c-0.258,0.978-0.525,1.875-0.803,2.677
			c-4.855,14.048-16.133,42.236-27.619,43.516c-3.107,0.35-5.484,0.512-7.264,0.559c-0.338,0-0.641,0.012-0.93,0.012
			c-3.982,0.023-4.576-0.571-4.576-0.571s-0.593,0.594-4.563,0.571c-0.174,0-0.348,0-0.533-0.012c-1.84-0.023-4.32-0.186-7.67-0.559
			c-11.488-1.28-22.766-29.468-27.607-43.516c-0.105-0.303-0.209-0.605-0.303-0.932c-0.094-0.279-0.176-0.559-0.268-0.861
			c-0.338-1.187-0.652-2.502-0.955-3.934c-0.116-0.512-0.221-1.047-0.325-1.594c-0.536-2.805-1.013-5.982-1.397-9.393
			c-0.058-0.523-0.117-1.059-0.174-1.606c-0.094-0.838-0.174-1.699-0.245-2.572l-0.069-0.733l0.012,0.011
			c1.094,2.444,2.258,4.772,4.027,6.809c2.908,3.352,6.982,5.098,11.395,5.18c5.156,0.093,10.449-1.699,14.885-4.213
			c2.061-1.164,3.992-2.561,6.064-3.712c1.838-1.013,3.828-1.653,5.959-1.374c2.63,0.361,4.841,1.92,6.949,3.422
			c0.301,0.221,0.604,0.431,0.906,0.641c2.537,1.78,5.168,3.433,7.984,4.725c1.641,0.745,3.342,1.362,5.098,1.757
			c0.967,0.221,1.955,0.384,2.943,0.477c2.959,0.268,5.914-0.186,8.719-1.129c2.734-0.919,5.412-2.281,7.68-4.062
			c1.877-1.454,3.48-3.212,4.865-5.133C643.535,123.835,643.699,123.603,643.861,123.358z"/>
		<path fill="#56EF81" d="M556.307,124.429c0.162,1.407,9.199,14.32,18.174,11.788s21.113-10.137,21.113-10.137
			s-8.916,7.5-11.447,10.426c-2.738,3.163-9.376,13.854-9.376,13.854L556.307,124.429z"/>
		<path fill="#56EF81" d="M643.623,126.274c-0.16,1.407-9.197,14.32-18.172,11.788s-21.113-10.138-21.113-10.138
			s8.914,7.5,11.449,10.427c2.736,3.163,9.373,13.854,9.373,13.854L643.623,126.274z"/>
		<path fill="#56EF81" d="M644.803,106.016l0.012,0.036c0,0.011-0.012,0.011-0.012,0.023c-0.279-0.279-0.721-0.85-1.35-1.886h0.258
			c-0.047-0.069-0.816-1.815-2.434-3.957c-1.268-2.491-2.908-5.947-5.027-10.719c-4.76-10.777-4.865-25.709-5.402-29.224v-0.036
			c-0.057-0.349-0.115-0.582-0.184-0.675c4.328,2.91,8.029,6.646,9.928,11.359C643.779,78.934,644.979,92.504,644.803,106.016z"/>
		<path fill="#56EF81" d="M569.338,59.579c-0.068,0.093-0.127,0.326-0.186,0.675v0.036c-0.523,3.515-0.627,18.447-5.387,29.224
			c-2.119,4.772-3.761,8.229-5.029,10.719c-1.619,2.141-2.387,3.887-2.432,3.957h0.256c-0.652,1.06-1.084,1.63-1.375,1.909
			c-0.174-13.535,1.025-27.153,4.227-35.16C561.297,66.224,564.999,62.488,569.338,59.579z"/>
		<path fill="#FFFFFF" d="M556.305,104.189c0.045-0.069,0.813-1.815,2.432-3.957c-0.908,1.769-1.619,3.049-2.176,3.957H556.305z"/>
		<path fill="#FFFFFF" d="M641.277,100.232c1.617,2.141,2.387,3.887,2.434,3.957h-0.258
			C642.895,103.282,642.172,102.001,641.277,100.232z"/>
		<path fill="#FFFFFF" d="M644.826,106.098c-0.012-0.012-0.012-0.012-0.023-0.023c0-0.012,0.012-0.012,0.012-0.023L644.826,106.098z
			"/>
		<path fill="#56EF81" d="M643.453,104.189h0.258c-0.043-0.063-0.689-1.513-2.018-3.382l0,0l0,0
			c-0.135-0.189-0.268-0.378-0.416-0.575c-2.664-3.562-7.646-8.205-15.48-8.031c-12.533,0.268-15.186,9.102-23.602,10.137h-4.375
			c-8.427-1.036-11.068-9.87-23.604-10.137c-7.831-0.174-12.814,4.469-15.479,8.031c-1.619,2.141-2.387,3.887-2.432,3.957h1.063
			c-0.951,1.445-1.664,3.04-2.122,4.732c0.102,3.89,0.309,7.738,0.615,11.413c0.803,1.934,1.719,3.833,2.939,5.541
			c2.732,3.826,6.726,6.311,11.459,6.639c5.197,0.36,10.66-1.303,15.191-3.763c2.211-1.201,4.252-2.68,6.441-3.918
			c1.678-0.95,3.512-1.728,5.479-1.649c2.557,0.104,4.91,1.397,6.949,2.853c2.592,1.849,5.203,3.676,8.031,5.15
			c2.594,1.352,5.354,2.446,8.254,2.902c2.969,0.466,6.002,0.285,8.893-0.537c5.574-1.582,10.402-4.83,13.777-9.542
			c0.211-0.295,0.404-0.602,0.605-0.903c0.525-5.356,0.852-11.181,0.922-17.031C644.523,105.795,644.082,105.225,643.453,104.189z"
			/>
		<path fill="#35A152" d="M607.33,114.057c0,5.448,7.959,14.247,15.082,14.247s10.715-8.799,10.715-14.247
			c0-5.446-5.775-9.863-12.898-9.863C613.104,104.194,607.33,108.611,607.33,114.057z"/>
		<path fill="#35A152" d="M601.129,177.043c0,0,13.221,0.641,21.283-12.898c5.23-8.783,2.811-13.785,2.811-13.785
			c-3.623-1.673-8.586,14.925-25.226,14.21c-16.64,0.715-21.602-15.884-25.227-14.21c0,0-2.418,5.002,2.812,13.785
			c8.063,13.539,21.282,12.898,21.282,12.898H601.129z"/>
		<path fill="#35A152" d="M592.665,114.057c0,5.448-7.959,14.247-15.083,14.247s-10.714-8.799-10.714-14.247
			c0-5.446,5.773-9.863,12.898-9.863C586.889,104.194,592.665,108.611,592.665,114.057z"/>
		<path fill="#35A152" d="M601.42,151.217c0,0,10.117,2.184,7.24-5.95c-2.875-8.132-5.229-13.191-8.664-13.686
			c-3.436,0.495-5.787,5.554-8.664,13.686c-2.875,8.134,7.24,5.95,7.24,5.95H601.42z"/>
	</g>
</g>
</svg>
